<?xml version="1.0" standalone="no"?>
<!DOCTYPE svg PUBLIC "-//W3C//DTD SVG 20010904//EN"
 "http://www.w3.org/TR/2001/REC-SVG-20010904/DTD/svg10.dtd">
<svg version="1.0" xmlns="http://www.w3.org/2000/svg"
 width="2084.000000pt" height="2084.000000pt" viewBox="0 0 2084.000000 2084.000000"
 preserveAspectRatio="xMidYMid meet">
<metadata>
Created by potrace 1.14, written by Peter Selinger 2001-2017
</metadata>
<g transform="translate(0.000000,2084.000000) scale(0.100000,-0.100000)"
fill="#000000" stroke="none">
<path d="M10363 20363 c-79 -107 -88 -130 -109 -288 -2 -22 -7 -51 -9 -65 -8
-48 -16 -107 -20 -150 -2 -24 -7 -59 -9 -79 -3 -20 -8 -65 -11 -101 -3 -36 -8
-81 -10 -100 -2 -19 -7 -71 -10 -115 -10 -132 -16 -168 -36 -215 -44 -99 -89
-120 -282 -135 -38 -3 -96 -9 -130 -15 -83 -13 -172 -23 -297 -35 -30 -3 -89
-10 -130 -16 -41 -6 -91 -12 -110 -14 -213 -22 -710 -129 -1061 -229 -667
-190 -1322 -462 -1869 -776 -190 -108 -224 -130 -474 -295 -244 -163 -386
-266 -616 -450 -171 -137 -191 -154 -325 -270 -167 -146 -201 -173 -239 -189
-75 -31 -105 -13 -406 235 -96 79 -222 182 -280 229 -58 46 -134 110 -170 140
-140 121 -200 130 -283 43 -66 -70 -52 -146 46 -248 16 -16 93 -116 172 -221
79 -105 149 -197 156 -205 8 -8 26 -30 41 -51 15 -20 33 -42 40 -50 8 -7 38
-42 68 -78 30 -35 63 -73 72 -84 35 -39 61 -110 61 -168 0 -46 -5 -65 -31
-105 -17 -26 -47 -64 -67 -83 -65 -62 -342 -416 -501 -640 -439 -618 -790
-1270 -1049 -1950 -133 -350 -258 -757 -336 -1095 -11 -49 -22 -97 -24 -105
-11 -46 -37 -169 -41 -190 -3 -14 -11 -56 -19 -95 -7 -38 -16 -88 -19 -110 -6
-36 -12 -74 -22 -130 -5 -26 -33 -218 -39 -267 -3 -21 -7 -55 -10 -75 -3 -21
-7 -60 -10 -88 -3 -27 -7 -66 -10 -85 -2 -19 -7 -69 -10 -110 -4 -41 -8 -86
-10 -100 -2 -14 -6 -70 -10 -125 -16 -269 -47 -320 -210 -351 -11 -2 -31 -6
-45 -8 -14 -3 -54 -8 -90 -11 -36 -4 -76 -8 -90 -10 -14 -2 -54 -7 -90 -10
-68 -6 -213 -22 -290 -31 -25 -3 -63 -7 -85 -10 -22 -2 -56 -7 -75 -10 -19 -2
-51 -7 -70 -10 -19 -3 -55 -7 -80 -10 -52 -7 -81 -26 -149 -97 l-49 -51 62
-62 c65 -67 91 -78 201 -89 33 -4 67 -8 75 -10 8 -2 38 -7 65 -10 28 -4 61 -8
75 -10 14 -2 52 -7 85 -10 33 -3 71 -8 85 -10 14 -3 45 -7 70 -10 340 -36 463
-55 504 -77 59 -32 84 -98 101 -273 3 -33 8 -76 11 -95 4 -34 7 -60 19 -165 3
-27 7 -68 10 -90 3 -22 7 -60 10 -85 6 -61 18 -163 30 -252 3 -21 7 -57 10
-80 3 -24 8 -54 10 -68 2 -14 7 -43 10 -65 3 -23 7 -52 10 -65 3 -13 7 -42 11
-65 8 -57 39 -214 64 -325 12 -52 24 -106 26 -120 8 -41 83 -330 106 -405 31
-107 108 -355 123 -400 49 -146 177 -490 209 -560 8 -16 32 -73 55 -126 179
-425 434 -893 716 -1319 117 -176 401 -571 425 -590 3 -3 35 -41 70 -85 35
-44 109 -132 163 -195 161 -185 175 -216 136 -292 -28 -54 -60 -98 -289 -393
-207 -267 -351 -458 -369 -493 -11 -21 -13 -126 -4 -177 5 -23 0 -23 160 -16
24 1 148 91 372 269 157 125 148 118 306 257 221 194 281 195 527 8 504 -384
834 -626 1083 -794 77 -52 142 -97 143 -101 2 -5 7 -8 12 -8 4 0 64 -36 132
-80 67 -44 130 -84 138 -87 12 -6 141 -80 240 -138 143 -85 533 -267 775 -363
314 -123 804 -276 1050 -327 11 -2 72 -15 135 -30 63 -14 129 -28 145 -31 17
-2 37 -7 45 -9 8 -2 31 -6 50 -9 19 -3 46 -8 60 -11 45 -9 134 -25 175 -30 22
-3 51 -8 65 -10 14 -3 43 -7 65 -11 22 -3 51 -7 65 -9 14 -3 50 -7 80 -10 30
-4 62 -8 70 -10 8 -2 42 -7 75 -10 33 -4 71 -8 85 -10 14 -2 75 -9 135 -15
354 -33 334 -30 395 -56 70 -30 90 -91 115 -359 4 -33 8 -73 10 -90 2 -16 6
-66 10 -110 3 -44 8 -91 11 -105 2 -14 6 -47 9 -75 5 -57 15 -140 21 -170 2
-11 9 -47 15 -79 21 -116 88 -264 129 -286 34 -18 102 0 136 35 17 18 31 39
31 46 1 8 4 32 7 54 4 22 8 67 10 100 2 33 11 105 19 160 14 89 20 134 32 225
2 14 6 54 9 90 4 36 9 85 11 110 3 25 7 86 10 135 10 155 35 234 92 286 63 59
116 73 327 84 66 4 126 8 135 10 9 1 47 6 84 10 37 3 76 8 86 10 10 2 42 6 71
10 29 4 60 8 69 10 9 1 52 8 96 15 44 6 91 13 105 15 14 3 43 7 65 10 77 12
361 65 455 85 52 12 106 24 120 26 14 3 111 27 215 54 984 253 1890 683 2755
1308 238 172 418 316 699 560 53 45 118 94 146 109 91 47 124 30 450 -233 259
-208 450 -358 503 -394 41 -27 49 -29 135 -27 l92 2 1 75 c0 41 -2 85 -4 96
-4 23 -174 253 -357 484 -254 321 -307 403 -299 466 7 53 23 80 183 302 80
112 156 218 168 235 13 18 40 55 60 84 222 303 448 631 565 818 48 77 91 145
95 151 5 5 13 19 19 30 7 11 39 67 71 125 150 261 295 552 395 789 21 52 45
109 53 125 7 17 25 62 40 100 15 39 31 79 36 90 79 178 287 860 333 1095 2 14
20 99 39 190 20 91 38 183 41 205 4 22 13 81 22 130 18 107 21 126 29 185 3
25 8 56 10 70 2 14 7 52 10 85 3 33 8 67 10 75 2 8 7 49 10 90 3 41 8 91 10
110 6 44 12 118 20 245 17 270 30 311 112 347 41 18 225 47 408 63 62 6 105
10 285 31 25 3 56 7 70 9 14 3 48 7 75 11 96 11 187 34 214 53 14 11 54 48 88
84 l63 65 -79 51 c-43 28 -93 56 -112 61 -48 14 -346 51 -514 65 -38 3 -81 7
-95 9 -14 3 -52 7 -85 11 -99 10 -149 16 -175 20 -14 3 -40 7 -58 10 -56 9
-121 45 -141 79 -25 40 -39 94 -46 176 -3 36 -7 90 -10 120 -2 30 -7 91 -10
135 -3 44 -7 100 -10 125 -7 74 -16 153 -20 190 -3 19 -7 58 -10 85 -3 28 -7
61 -10 75 -2 14 -7 48 -10 75 -8 67 -14 109 -25 175 -5 30 -12 73 -16 95 -5
34 -69 362 -79 405 -2 8 -13 56 -24 105 -32 141 -76 308 -126 480 -30 103
-150 465 -170 510 -7 17 -36 91 -65 165 -29 74 -63 158 -75 185 -12 28 -35 79
-51 115 -15 36 -83 176 -151 312 -204 406 -450 799 -843 1348 -319 444 -474
665 -493 698 -29 51 -24 104 14 168 19 30 144 198 278 372 340 441 381 508
362 579 -14 49 -42 79 -86 92 -72 20 -99 3 -405 -248 -91 -74 -181 -149 -201
-165 -138 -119 -322 -258 -367 -278 -75 -34 -114 -15 -282 132 -400 353 -796
650 -1225 919 -456 286 -1037 562 -1595 758 -238 84 -665 210 -840 248 -8 2
-55 13 -105 24 -79 19 -347 72 -427 86 -45 8 -81 14 -103 19 -11 2 -40 7 -65
10 -25 3 -54 8 -65 10 -19 4 -74 11 -154 22 -19 2 -46 6 -60 9 -14 2 -51 7
-81 10 -30 3 -71 7 -90 10 -42 5 -114 13 -190 20 -284 27 -327 50 -359 190
-13 62 -15 74 -36 240 -4 33 -15 139 -20 195 -2 19 -6 55 -9 80 -3 25 -8 66
-11 92 -14 130 -43 294 -59 333 -12 28 -123 185 -131 185 -1 0 -25 -30 -52
-67z m85 -1598 c17 -49 35 -110 41 -135 9 -42 12 -67 26 -190 3 -25 7 -61 10
-80 2 -19 7 -62 10 -95 3 -33 8 -73 10 -90 8 -56 15 -120 20 -175 3 -30 7 -71
10 -90 2 -19 7 -60 10 -90 3 -30 8 -71 10 -90 3 -19 7 -60 10 -90 3 -30 10
-93 15 -140 6 -47 13 -107 16 -135 3 -27 7 -61 9 -75 2 -14 6 -54 10 -90 4
-36 8 -76 10 -90 2 -14 6 -54 10 -90 4 -36 8 -76 10 -90 2 -14 6 -54 10 -90 3
-36 8 -76 10 -90 2 -14 7 -50 10 -80 3 -30 7 -76 10 -102 3 -27 7 -69 10 -95
3 -27 7 -64 10 -83 2 -19 7 -60 10 -90 3 -30 8 -66 10 -80 3 -14 7 -54 10 -90
3 -36 7 -76 9 -90 3 -14 7 -56 11 -95 3 -38 8 -83 11 -100 2 -16 6 -51 9 -77
5 -46 10 -91 20 -188 3 -25 8 -63 11 -85 3 -22 7 -58 9 -80 6 -66 15 -158 20
-195 4 -33 8 -65 21 -180 2 -25 7 -63 9 -85 3 -22 7 -62 10 -90 3 -27 8 -68
10 -90 5 -38 7 -60 20 -180 3 -27 7 -69 10 -92 3 -24 7 -64 10 -90 3 -27 7
-61 10 -78 2 -16 7 -61 10 -100 3 -38 8 -81 10 -95 3 -14 7 -52 10 -85 4 -33
8 -71 11 -85 2 -14 6 -50 10 -80 3 -30 8 -57 9 -61 2 -3 7 -39 11 -80 3 -40 8
-77 11 -81 2 -5 6 -65 8 -135 6 -159 -9 -223 -58 -254 -28 -18 -43 -19 -117
-15 -103 7 -201 33 -265 70 -51 31 -50 35 13 59 45 18 102 21 167 8 30 -6 49
-3 78 11 20 10 37 22 37 25 0 13 -84 93 -97 93 -7 0 -73 26 -148 57 -153 65
-154 61 12 93 60 11 125 27 145 36 36 16 37 18 24 43 -20 38 -46 58 -86 65
-37 7 -230 96 -230 106 0 3 66 23 148 44 81 21 153 42 160 45 16 9 -140 96
-186 105 -35 6 -122 53 -122 65 0 9 140 90 183 105 75 27 76 30 6 71 -35 21
-89 51 -119 68 -87 47 -87 46 -33 84 26 19 64 42 83 51 57 27 90 52 90 71 0
22 -41 52 -105 76 -27 10 -60 29 -73 43 l-25 24 22 21 c12 12 54 38 93 57 106
51 107 48 -72 190 -36 28 -65 57 -65 63 0 16 42 34 95 40 107 14 140 26 140
54 0 12 -65 47 -185 97 -74 31 -80 78 -17 113 20 11 49 23 63 27 77 18 87 71
23 116 -79 56 -115 103 -142 190 -19 59 -23 99 -27 258 -4 137 -6 156 -26 183
l-21 30 -27 -38 -26 -38 -1 -1321 -2 -1321 -27 -56 c-16 -31 -31 -57 -34 -57
-6 0 -39 51 -55 85 -5 11 -10 268 -12 580 -2 308 -5 567 -7 575 -2 8 -8 35
-12 59 -7 36 -10 41 -16 25 -16 -46 -20 -165 -20 -659 0 -311 -4 -547 -10
-588 -22 -138 -116 -219 -256 -219 -80 0 -134 19 -159 57 -16 25 -16 82 0 161
2 11 7 53 11 93 3 40 8 80 10 89 1 9 6 53 10 96 4 43 8 86 10 95 1 9 6 50 10
91 4 41 8 82 10 90 1 8 6 49 10 90 3 41 8 86 10 100 2 14 6 54 10 90 4 36 8
76 10 90 2 14 7 54 10 90 3 36 12 119 20 185 7 66 16 145 20 175 3 30 10 91
15 135 5 44 12 107 15 140 3 33 8 76 10 95 2 19 7 62 10 95 4 33 8 71 10 85 2
14 6 48 9 75 3 28 8 73 12 100 3 28 7 66 9 85 3 37 13 122 20 180 2 19 7 64
11 100 3 36 7 72 9 80 2 8 6 49 10 90 3 41 8 82 10 90 2 8 7 53 10 100 4 46 8
87 10 90 1 3 6 41 10 84 4 43 8 86 10 95 1 9 6 45 9 81 4 36 9 81 11 100 2 19
7 60 10 90 3 30 8 66 10 80 2 14 7 56 10 93 3 38 9 99 15 135 5 37 12 99 15
137 4 39 9 82 11 97 2 15 6 49 9 75 5 57 24 226 30 268 2 17 7 62 10 100 4 39
9 78 11 87 1 9 5 48 9 85 3 37 8 79 11 93 2 14 6 52 9 85 3 33 8 71 10 85 2
14 6 50 10 80 3 30 8 71 10 90 3 19 9 76 15 125 9 74 34 190 67 309 8 27 17
10 51 -89z m-467 64 c63 -40 109 -93 110 -127 12 -227 -46 -300 -261 -327 -25
-4 -56 -8 -70 -10 -14 -2 -52 -7 -85 -10 -73 -7 -125 -13 -185 -20 -25 -3 -66
-8 -93 -10 -26 -3 -60 -7 -75 -9 -15 -2 -47 -8 -72 -11 -25 -4 -54 -9 -65 -11
-10 -2 -37 -6 -60 -9 -22 -3 -47 -8 -55 -10 -8 -2 -35 -7 -60 -10 -25 -3 -61
-10 -80 -15 -19 -5 -51 -12 -70 -15 -68 -11 -347 -78 -485 -116 -315 -86 -740
-236 -980 -344 -16 -8 -82 -37 -145 -66 -116 -52 -447 -217 -530 -265 -25 -14
-81 -46 -125 -71 -44 -25 -96 -55 -115 -68 -19 -12 -91 -57 -160 -100 -127
-79 -395 -262 -505 -344 -94 -71 -319 -244 -325 -250 -3 -4 -32 -28 -65 -55
-33 -27 -89 -78 -125 -112 -99 -96 -151 -110 -245 -63 -105 52 -184 138 -185
198 0 81 100 189 430 461 742 612 1591 1084 2495 1388 144 48 392 124 485 148
189 48 476 116 545 128 17 3 57 10 90 16 33 6 85 15 115 20 30 6 64 12 75 14
11 2 42 7 68 10 27 4 57 9 66 11 10 2 42 6 71 10 29 4 60 8 69 10 9 1 44 6 78
10 35 4 73 8 85 10 13 2 48 6 78 10 30 3 96 12 145 18 158 21 162 21 216 -14z
m1059 15 c30 -3 75 -7 99 -10 24 -2 62 -6 85 -9 77 -10 111 -15 154 -20 105
-13 169 -22 212 -30 14 -3 41 -7 60 -9 19 -3 50 -7 68 -10 17 -3 47 -8 65 -11
17 -3 39 -8 47 -10 8 -2 33 -6 55 -10 155 -23 577 -122 825 -195 96 -28 182
-53 190 -55 8 -2 80 -26 160 -53 947 -326 1764 -783 2535 -1419 88 -73 183
-153 210 -178 28 -25 69 -59 92 -76 63 -44 101 -95 97 -129 -11 -95 -185 -249
-281 -250 -52 0 -136 46 -213 116 -151 139 -592 471 -855 646 -321 212 -476
302 -815 471 -220 110 -252 124 -405 187 -55 22 -109 45 -120 50 -65 31 -510
181 -612 205 -10 3 -81 21 -158 40 -117 30 -361 82 -455 99 -14 2 -63 11 -110
20 -103 19 -135 24 -179 32 -18 3 -43 8 -55 10 -20 4 -110 20 -158 28 -13 2
-39 7 -58 10 -65 11 -95 16 -130 22 -19 3 -91 17 -160 30 -69 14 -141 27 -160
30 -126 16 -158 23 -200 44 -69 35 -104 92 -125 203 -15 82 -13 133 9 175 36
70 74 77 286 56z m-1114 -755 c63 -45 84 -67 78 -84 -2 -5 -6 -27 -9 -49 -3
-21 -7 -41 -10 -45 -2 -4 -6 -20 -9 -36 -11 -57 -41 -128 -71 -162 -25 -29
-44 -38 -125 -59 -118 -31 -268 -58 -440 -79 -55 -7 -247 -19 -270 -18 -35 3
-84 63 -133 162 -68 140 -56 210 45 262 20 10 54 21 75 24 21 2 47 6 58 9 11
2 42 7 68 10 27 4 58 9 70 12 12 2 83 13 157 24 74 11 145 22 157 24 12 3 43
8 70 12 26 3 57 8 68 10 11 2 43 7 70 10 28 4 52 8 54 10 13 12 44 0 97 -37z
m1154 26 c56 -8 90 -13 160 -25 30 -5 75 -12 100 -15 25 -4 86 -13 135 -20 50
-8 108 -17 130 -20 313 -46 334 -66 285 -286 -24 -107 -38 -137 -80 -173 -30
-25 -35 -25 -118 -20 -111 7 -189 16 -262 29 -14 3 -45 7 -70 10 -25 3 -56 7
-70 10 -13 3 -42 7 -65 10 -22 3 -47 8 -55 10 -8 2 -31 7 -50 10 -67 11 -161
35 -183 46 -78 40 -110 117 -106 255 3 74 6 89 26 108 22 22 162 88 173 81 3
-2 26 -6 50 -10z m-3387 -738 c53 -33 96 -61 95 -63 -2 -1 -21 -12 -43 -25
-22 -12 -59 -33 -83 -47 -68 -38 -101 -34 -166 22 l-56 47 41 60 c40 60 70 81
99 71 8 -3 59 -32 113 -65z m5607 29 c14 -11 42 -40 63 -62 l38 -42 -48 -28
c-114 -68 -136 -72 -177 -30 -49 48 -55 78 -23 123 33 46 76 75 102 66 11 -3
31 -15 45 -27z m-3492 -45 c38 -11 58 -30 72 -66 9 -23 7 -151 -4 -265 -3 -25
-7 -85 -11 -135 -3 -49 -8 -117 -10 -150 -3 -33 -7 -105 -10 -160 -14 -270
-22 -349 -41 -388 -23 -49 -104 -97 -191 -113 -116 -22 -813 -199 -953 -243
-522 -161 -998 -405 -1520 -781 -213 -153 -242 -155 -411 -28 -111 84 -313
240 -319 248 -3 3 -34 30 -70 60 -65 56 -117 109 -134 139 -6 9 -18 49 -27 90
-10 40 -20 75 -23 78 -2 2 -37 6 -77 7 -41 2 -74 7 -74 12 0 5 4 26 8 46 7 34
27 53 185 181 342 277 604 457 932 639 25 14 63 35 85 48 49 28 352 180 420
210 275 124 704 287 870 330 17 4 95 26 175 48 121 33 212 56 355 88 11 3 31
7 45 10 14 2 36 7 50 10 14 3 36 8 50 10 34 6 140 25 165 30 42 7 212 34 260
40 28 3 51 7 53 8 7 8 122 5 150 -3z m1382 -6 c52 -4 97 -8 100 -10 3 -1 35
-6 71 -9 82 -9 231 -35 429 -77 121 -26 102 -21 265 -63 77 -20 147 -38 155
-40 205 -50 713 -232 928 -332 41 -19 76 -34 78 -34 3 0 98 -47 212 -103 326
-163 567 -307 868 -518 181 -126 438 -325 473 -365 38 -44 63 -92 59 -116 -3
-21 -9 -23 -77 -28 l-75 -5 -17 -83 c-10 -45 -26 -95 -35 -110 -21 -35 -111
-111 -357 -303 -245 -191 -270 -207 -328 -213 -62 -6 -102 14 -256 127 -507
372 -1108 667 -1723 843 -151 44 -227 64 -260 70 -14 3 -50 11 -80 19 -63 16
-335 71 -394 80 -84 12 -163 61 -193 119 -15 29 -31 129 -47 301 -8 81 -17
161 -21 190 -4 28 -7 53 -20 160 -16 135 -15 190 2 224 36 70 95 88 223 68 25
-4 63 -9 85 -12 22 -3 54 -7 70 -10 17 -2 53 -7 80 -10 28 -3 84 -10 125 -15
41 -5 98 -12 125 -15 28 -4 61 -8 75 -10 14 -2 54 -6 90 -9 71 -7 78 -9 -270
82 -123 32 -289 67 -355 76 -115 15 -128 20 -176 60 l-33 28 29 24 c26 21 61
34 75 28 3 -1 48 -5 100 -9z m3441 -544 c51 -26 106 -62 146 -96 6 -5 24 -20
40 -31 193 -147 495 -398 520 -434 16 -23 41 -118 38 -148 -1 -24 -77 -119
-128 -161 -45 -37 -98 -52 -143 -40 -45 12 -304 205 -536 398 -170 142 -182
158 -177 248 4 71 33 124 139 251 19 23 36 42 38 42 2 0 30 -13 63 -29z
m-8322 -68 c79 -96 112 -160 112 -225 2 -98 0 -99 -286 -335 -98 -80 -338
-259 -370 -276 -74 -37 -151 -4 -246 105 -44 50 -53 67 -52 97 1 52 20 114 44
145 49 63 563 477 654 528 28 15 59 27 70 27 12 0 41 -26 74 -66z m-1667 -366
c53 -39 175 -135 270 -212 95 -77 247 -200 338 -274 91 -73 183 -148 205 -166
22 -18 177 -144 345 -279 168 -136 393 -318 500 -405 152 -124 1126 -911 1300
-1052 160 -128 868 -707 987 -806 61 -51 140 -109 175 -129 102 -59 139 -103
131 -154 -10 -66 -191 -260 -290 -310 -64 -33 -149 -34 -213 -1 -54 28 -268
242 -1315 1320 -377 387 -354 367 -442 394 -43 13 -79 23 -81 22 -1 -1 7 -29
19 -61 24 -64 13 -52 487 -533 433 -438 688 -699 792 -808 58 -60 173 -181
255 -267 113 -118 155 -170 172 -209 13 -31 18 -53 12 -56 -21 -7 -99 31 -140
68 -36 34 -93 61 -127 61 -20 0 12 -59 59 -108 74 -79 82 -90 94 -139 20 -77
-14 -156 -108 -255 -42 -45 -75 -55 -113 -35 -47 25 -53 32 -580 707 -40 52
-110 142 -154 200 -44 58 -91 119 -104 135 -14 17 -99 127 -191 245 -91 118
-171 222 -178 230 -6 8 -47 60 -89 115 -43 55 -164 210 -268 345 -105 135
-201 258 -213 274 -18 23 -670 864 -881 1136 -28 36 -138 178 -244 315 -107
138 -205 264 -218 280 -33 42 -174 226 -201 261 -12 16 -47 62 -78 102 -30 41
-55 80 -55 87 0 12 25 34 40 35 3 0 49 -33 102 -73z m11608 -44 c-45 -87 -149
-229 -475 -648 -81 -104 -245 -316 -270 -350 -16 -22 -35 -47 -42 -55 -7 -8
-155 -199 -329 -425 -174 -225 -384 -498 -467 -605 -83 -107 -206 -267 -274
-355 -68 -88 -130 -167 -136 -175 -7 -9 -33 -42 -57 -75 -25 -33 -53 -69 -62
-80 -13 -15 -497 -640 -609 -787 -34 -44 -279 -361 -305 -393 -13 -16 -58 -75
-100 -130 -197 -256 -248 -295 -328 -246 -47 29 -128 143 -185 260 -28 57 -50
105 -48 107 1 2 52 -30 113 -71 61 -40 127 -80 148 -89 l38 -16 -6 67 c-5 48
-14 79 -34 111 -51 82 -61 107 -66 165 -3 32 -2 56 2 54 4 -2 34 -16 67 -32
33 -16 76 -38 95 -50 19 -12 61 -36 92 -54 l57 -32 -34 86 c-18 48 -42 98 -52
112 -39 56 -44 68 -39 117 3 27 10 52 17 57 23 14 75 -14 129 -71 34 -36 74
-67 104 -80 27 -11 50 -19 51 -18 8 9 -24 160 -37 175 -20 23 -58 193 -43 193
3 0 29 -12 57 -26 48 -25 171 -74 184 -74 5 0 -1 53 -13 99 -3 14 -14 37 -24
51 -12 16 -21 51 -25 95 -3 39 -7 76 -9 83 -6 17 -6 17 92 -31 100 -48 162
-71 170 -63 10 9 -20 110 -40 138 -15 20 -21 47 -24 104 -3 70 -2 76 14 69 61
-24 207 -75 215 -75 5 0 7 3 5 8 -3 4 -7 30 -11 59 -3 28 -13 83 -21 123 -8
39 -15 73 -15 75 0 2 57 -11 126 -29 l127 -33 -6 56 c-3 31 -17 79 -30 106
-23 46 -31 79 -28 113 2 20 46 14 107 -14 62 -28 81 -25 123 20 l20 22 -24 49
c-41 79 -23 142 66 235 99 103 168 191 188 240 13 30 30 70 38 88 9 18 14 35
11 37 -2 3 -40 -19 -84 -48 -87 -57 -141 -110 -1174 -1167 -658 -673 -703
-718 -744 -734 -54 -22 -58 -21 -50 22 7 43 34 92 120 218 l61 91 -109 -87
c-118 -94 -174 -120 -257 -120 -132 0 -245 91 -227 183 16 77 76 144 281 311
17 13 107 86 200 163 94 76 240 195 325 263 85 69 164 132 175 142 11 9 99 79
195 157 96 77 182 146 190 153 8 7 30 26 50 41 19 16 51 41 70 57 172 140
1089 884 1329 1079 166 135 315 256 330 268 14 12 175 141 356 288 182 147
341 277 355 288 14 12 56 47 95 77 38 30 80 64 93 75 31 27 276 192 281 189 1
-1 -20 -47 -49 -101z m-11826 -277 c64 -37 124 -110 141 -170 27 -95 2 -181
-83 -291 -25 -33 -49 -62 -52 -65 -14 -12 -165 -205 -250 -320 -100 -135 -312
-452 -378 -565 -23 -38 -46 -75 -52 -82 -5 -7 -10 -14 -10 -17 0 -2 -32 -60
-71 -128 -161 -279 -383 -759 -517 -1113 -55 -148 -148 -414 -157 -453 -3 -9
-19 -62 -36 -117 -28 -90 -86 -297 -94 -335 -2 -8 -17 -71 -33 -140 -33 -135
-87 -404 -98 -485 -3 -27 -8 -59 -10 -70 -4 -19 -9 -55 -20 -137 -3 -24 -7
-54 -9 -68 -5 -29 -22 -207 -29 -300 -3 -36 -8 -99 -11 -140 -10 -125 -35
-204 -77 -244 -61 -58 -292 -92 -353 -52 -47 31 -55 69 -42 201 4 39 9 108 12
155 3 47 8 101 10 120 2 19 6 55 9 80 3 25 8 71 11 103 4 32 8 68 11 80 2 12
6 45 9 72 7 56 6 49 35 230 12 72 23 141 25 155 2 14 13 72 25 130 12 58 24
116 26 130 54 297 193 781 334 1170 120 330 207 531 382 880 219 438 446 808
746 1220 59 80 109 147 112 150 3 3 48 59 100 125 52 66 101 126 108 134 7 7
30 39 51 70 84 123 139 143 235 87z m12087 -13 c1 -21 2 -54 2 -74 1 -20 -11
-68 -27 -106 l-28 -70 -90 -32 -91 -31 6 89 c8 129 36 172 151 233 68 36 76
35 77 -9z m194 -177 c52 -22 118 -94 262 -286 415 -555 760 -1148 1020 -1755
35 -82 68 -159 73 -170 65 -147 214 -581 289 -845 54 -190 119 -455 111 -455
-1 0 3 -13 9 -28 6 -15 13 -40 16 -55 3 -15 7 -38 10 -52 10 -46 74 -395 79
-435 3 -22 9 -57 12 -78 9 -57 13 -86 19 -157 3 -36 8 -75 10 -88 2 -12 7 -59
10 -105 4 -45 8 -98 10 -117 2 -19 6 -78 10 -130 7 -102 10 -127 23 -206 17
-102 -7 -141 -98 -159 -49 -11 -131 -6 -178 9 -114 38 -162 116 -187 301 -9
66 -18 131 -21 145 -2 14 -6 48 -9 75 -3 28 -8 68 -11 90 -11 77 -13 90 -19
145 -3 30 -8 66 -10 80 -2 14 -7 45 -10 70 -3 25 -8 56 -10 70 -3 14 -7 41
-10 60 -3 19 -7 46 -10 60 -3 14 -7 39 -10 55 -3 17 -7 41 -10 55 -3 14 -7 39
-10 55 -3 17 -10 50 -15 75 -5 25 -12 56 -14 70 -16 95 -120 500 -167 650 -41
133 -61 196 -69 215 -5 11 -16 45 -26 75 -30 99 -145 391 -227 580 -218 502
-556 1089 -874 1519 -10 13 -55 74 -100 135 -46 61 -96 139 -113 173 -55 113
-44 238 26 300 77 68 150 87 219 59z m-7040 -87 c19 -21 47 -55 61 -76 26 -39
26 -43 9 -193 -2 -19 -7 -60 -10 -90 -3 -30 -8 -71 -10 -90 -3 -19 -7 -62 -10
-95 -3 -33 -7 -71 -10 -85 -2 -14 -7 -54 -11 -90 -3 -36 -7 -72 -9 -80 -2 -8
-6 -44 -9 -80 -4 -36 -9 -76 -11 -90 -3 -14 -7 -45 -10 -70 -7 -64 -14 -115
-25 -195 -6 -38 -13 -88 -15 -110 -3 -22 -10 -74 -16 -115 -6 -41 -12 -86 -14
-100 -2 -14 -7 -45 -11 -70 -4 -25 -7 -49 -6 -54 6 -20 -53 -99 -101 -136 -29
-21 -100 -60 -157 -85 -58 -25 -114 -50 -125 -55 -11 -5 -101 -44 -200 -86
-99 -42 -211 -90 -249 -106 -85 -37 -163 -43 -221 -18 -22 9 -87 55 -144 101
-57 46 -120 97 -140 112 -20 15 -54 43 -76 61 -22 19 -215 174 -430 346 -408
326 -475 383 -495 421 -47 86 -10 141 180 269 36 25 67 47 70 50 7 9 228 147
335 210 141 83 474 242 655 313 148 58 413 150 465 162 11 2 67 17 125 34 141
39 531 127 567 128 7 0 29 -17 48 -38z m1725 5 c47 -9 90 -17 95 -18 6 -2 28
-6 50 -10 22 -5 101 -24 175 -43 74 -19 140 -36 145 -37 6 -1 51 -15 100 -30
532 -161 1021 -398 1467 -709 136 -95 190 -142 213 -187 14 -26 13 -33 -1 -69
-16 -42 -47 -73 -189 -192 -159 -133 -995 -803 -1043 -836 -102 -68 -190 -69
-329 -2 -193 92 -272 127 -368 163 -55 21 -109 42 -120 46 -11 5 -49 19 -85
31 -130 44 -194 104 -224 210 -15 57 -22 105 -41 289 -3 36 -15 138 -26 226
-11 89 -21 177 -23 195 -2 19 -6 52 -9 74 -9 59 -16 122 -22 189 -4 33 -8 62
-10 65 -2 4 -6 42 -10 86 -4 44 -9 82 -10 85 -2 3 -6 37 -10 75 -4 39 -9 78
-11 89 -5 25 -14 111 -19 166 -4 61 23 122 64 141 44 22 140 23 241 3z m-6520
-321 c18 -14 68 -69 112 -121 110 -131 119 -99 -120 -432 -73 -102 -181 -247
-240 -322 -106 -136 -107 -137 -148 -138 -49 0 -152 32 -214 67 -91 52 -127
102 -112 156 10 34 101 169 246 362 115 154 254 333 283 365 13 14 23 28 23
32 0 18 76 53 127 57 6 1 26 -11 43 -26z m11185 -83 c-2 -60 -7 -115 -11 -121
-5 -9 6 -10 47 -5 134 18 158 18 177 5 75 -54 392 -492 392 -543 0 -29 -33
-101 -59 -129 -30 -33 -81 -61 -160 -88 -94 -33 -107 -29 -188 57 -89 94 -190
234 -241 334 -39 78 -39 75 -32 228 2 34 1 65 -2 68 -3 3 -33 -2 -66 -10 -76
-20 -91 -20 -91 2 -6 126 2 153 57 205 21 21 162 105 179 107 1 0 0 -49 -2
-110z m-10597 -684 c102 -127 240 -296 307 -375 182 -218 192 -231 204 -271
26 -88 18 -108 -164 -418 -6 -9 -35 -57 -64 -107 -63 -105 -175 -295 -204
-345 -64 -112 -174 -334 -226 -458 -62 -144 -162 -431 -201 -577 -54 -201
-143 -551 -156 -611 -18 -92 -68 -284 -84 -328 -38 -101 -111 -172 -195 -190
-60 -13 -72 -14 -175 -21 -58 -3 -112 -8 -120 -10 -8 -2 -44 -7 -80 -10 -36
-4 -117 -15 -180 -26 -141 -23 -172 -24 -217 -2 -63 30 -72 67 -68 288 3 174
2 185 -10 135 -7 -30 -15 -68 -18 -85 -23 -135 -53 -240 -79 -276 -15 -21 -32
-39 -36 -39 -16 0 -60 72 -57 94 2 11 6 58 10 104 6 81 10 121 20 212 8 65 26
202 30 225 18 107 29 164 46 245 12 52 23 106 25 120 3 14 21 88 40 165 203
822 546 1589 1022 2285 74 108 275 386 343 473 25 32 54 46 82 39 10 -2 102
-109 205 -236z m10142 132 c-1 -55 -7 -110 -15 -133 -16 -44 -18 -56 -7 -39
15 25 106 64 146 64 87 -1 138 -56 337 -360 418 -639 714 -1281 918 -1990 26
-92 90 -348 105 -420 3 -14 12 -56 20 -95 8 -38 17 -83 20 -100 35 -209 46
-277 51 -315 3 -25 8 -56 10 -70 2 -14 7 -52 11 -85 3 -33 8 -69 10 -80 3 -11
4 -59 5 -107 0 -163 -40 -196 -223 -184 -128 9 -161 12 -220 20 -27 3 -69 8
-95 11 -51 6 -96 12 -153 20 -19 2 -55 7 -80 10 -25 3 -54 7 -65 9 -11 2 -42
7 -70 10 -195 26 -269 54 -303 114 -21 38 -41 118 -62 247 -72 449 -173 820
-336 1234 -85 215 -267 584 -388 784 -53 87 -148 236 -213 330 -65 95 -125
194 -134 221 -32 92 -12 151 93 281 36 44 137 175 227 290 89 116 172 224 185
240 98 124 91 117 168 159 23 13 46 24 51 25 4 1 7 -41 7 -91z m-9332 -1152
c32 -29 133 -159 620 -791 114 -148 240 -310 279 -360 157 -200 166 -278 53
-503 -57 -115 -124 -282 -176 -441 -51 -154 -78 -205 -129 -250 -73 -64 -131
-83 -295 -96 -91 -7 -222 -20 -320 -30 -25 -2 -70 -7 -100 -10 -30 -3 -89 -10
-130 -15 -81 -10 -132 -16 -225 -26 -33 -3 -68 -8 -77 -9 -9 -2 -48 -7 -85
-10 -37 -4 -75 -9 -83 -10 -121 -22 -350 -26 -397 -7 -63 27 -67 100 -19 347
103 530 259 991 491 1455 136 272 407 704 483 771 40 35 61 32 110 -15z m8401
30 c28 -15 138 -173 297 -428 209 -332 391 -726 522 -1128 77 -236 156 -555
178 -723 3 -23 10 -62 14 -87 5 -25 8 -75 7 -112 -2 -59 -5 -71 -30 -95 -26
-27 -31 -28 -130 -28 -91 0 -246 10 -309 20 -13 2 -57 6 -98 10 -41 4 -86 8
-100 10 -14 1 -56 6 -95 9 -38 4 -83 9 -100 11 -16 2 -50 6 -75 9 -25 3 -101
12 -170 20 -69 9 -150 18 -180 21 -30 3 -64 7 -75 9 -20 4 -111 15 -170 21
-125 13 -210 46 -249 98 -27 35 -86 225 -167 532 -82 311 -75 293 -117 311
-54 22 -92 62 -92 96 0 44 21 77 185 293 278 367 296 390 308 405 7 8 131 169
275 357 145 189 275 352 289 363 31 24 45 25 82 6z m2603 -361 c34 -36 39 -63
22 -98 -22 -42 -87 -127 -96 -124 -12 4 -109 99 -124 122 -20 30 -8 52 65 123
l55 52 30 -27 c16 -16 38 -37 48 -48z m-13529 10 c79 -79 79 -87 1 -162 -36
-35 -67 -63 -69 -63 -12 0 -96 123 -101 148 -5 24 2 36 42 80 27 29 54 52 61
52 7 0 37 -25 66 -55z m6887 -319 c36 -4 82 -9 103 -12 225 -25 546 -132 825
-274 702 -356 1157 -911 1333 -1625 25 -104 35 -158 64 -345 24 -161 24 -525
-1 -715 -5 -37 -38 -224 -48 -270 -48 -215 -176 -542 -277 -710 -129 -213
-250 -368 -414 -530 -372 -369 -855 -616 -1380 -705 -300 -51 -600 -46 -910
15 -360 72 -687 215 -992 433 -117 83 -158 118 -282 237 -225 217 -429 512
-550 795 -18 41 -39 89 -46 105 -24 54 -119 344 -129 395 -2 14 -11 57 -19 95
-8 39 -18 92 -22 118 -3 27 -8 58 -10 69 -27 139 -25 467 5 663 18 122 21 138
46 240 68 272 184 543 350 816 119 197 283 392 460 549 207 184 556 392 843
505 194 75 427 131 626 151 39 3 71 7 72 8 5 4 298 -2 353 -8z m7138 -1106
c39 -24 68 -83 77 -155 3 -28 8 -57 10 -65 2 -8 7 -35 10 -60 3 -25 13 -88 21
-140 8 -52 17 -111 20 -130 8 -58 16 -114 20 -134 2 -10 6 -44 10 -75 3 -31 8
-58 9 -61 2 -3 6 -31 10 -61 l7 -56 -51 -61 c-72 -86 -82 -91 -203 -97 -84 -5
-120 4 -156 38 -44 41 -61 90 -77 227 -3 30 -8 66 -10 80 -2 14 -7 50 -10 80
-3 30 -8 66 -10 80 -2 14 -7 50 -10 80 -3 30 -8 66 -10 80 -2 14 -6 43 -9 65
-3 22 -10 77 -16 122 -19 146 10 192 145 231 133 39 175 41 223 12z m-14593 1
c22 -5 64 -14 93 -20 82 -17 139 -46 162 -83 18 -28 20 -43 15 -104 -3 -39 -7
-80 -9 -91 -5 -25 -43 -299 -51 -368 -3 -27 -8 -68 -10 -90 -3 -22 -7 -71 -10
-110 -4 -48 -14 -87 -33 -125 -39 -79 -90 -103 -223 -106 -196 -4 -234 50
-200 291 7 50 21 149 31 220 22 157 31 217 36 270 2 21 6 46 8 55 3 8 8 40 11
70 12 106 37 159 88 184 37 18 38 18 92 7z m10270 -856 c39 -3 84 -7 100 -10
38 -5 198 -24 250 -30 81 -9 142 -16 215 -25 41 -5 100 -12 130 -15 65 -7 99
-11 205 -24 44 -6 107 -13 140 -16 33 -4 71 -8 85 -10 22 -3 52 -7 170 -20 19
-2 53 -7 75 -9 22 -3 65 -8 95 -11 30 -3 69 -7 85 -10 29 -4 64 -9 170 -20 28
-3 84 -10 125 -15 41 -5 96 -11 123 -14 26 -4 68 -8 95 -12 26 -3 81 -9 122
-14 41 -5 95 -12 120 -14 25 -3 65 -8 90 -10 192 -23 322 -38 360 -41 25 -3
56 -7 70 -10 14 -2 52 -7 85 -10 33 -3 92 -9 130 -15 39 -5 97 -12 130 -15 33
-3 71 -7 85 -10 14 -2 48 -7 75 -10 28 -3 68 -7 90 -10 22 -3 63 -7 90 -10 28
-3 61 -7 75 -10 14 -2 55 -7 92 -10 37 -3 77 -8 90 -10 13 -2 50 -6 83 -10 59
-6 74 -8 165 -19 25 -3 68 -8 95 -11 28 -3 64 -8 80 -10 17 -2 57 -7 90 -10
33 -3 71 -8 85 -10 14 -2 50 -6 80 -10 30 -3 71 -8 90 -10 19 -3 58 -7 85 -10
48 -5 143 -17 250 -30 28 -4 64 -8 80 -10 119 -12 165 -18 204 -26 51 -11 136
-58 124 -69 -16 -14 -89 -38 -133 -44 -214 -28 -353 -46 -395 -51 -27 -3 -95
-12 -150 -20 -55 -7 -125 -17 -155 -21 -30 -3 -62 -8 -70 -9 -8 -1 -44 -6 -80
-9 -36 -4 -90 -11 -120 -16 -30 -5 -83 -12 -118 -15 -35 -4 -71 -8 -80 -10 -9
-1 -46 -6 -82 -10 -36 -4 -72 -8 -80 -10 -8 -1 -44 -6 -80 -10 -36 -3 -76 -8
-90 -10 -14 -2 -50 -6 -80 -10 -30 -3 -71 -8 -90 -10 -42 -6 -84 -11 -165 -20
-33 -4 -71 -8 -85 -10 -14 -2 -52 -7 -85 -11 -33 -3 -67 -8 -75 -9 -8 -2 -46
-6 -85 -10 -38 -4 -77 -9 -85 -10 -8 -2 -44 -6 -80 -9 -36 -4 -76 -9 -90 -11
-14 -2 -54 -7 -90 -11 -36 -3 -73 -8 -83 -10 -10 -2 -46 -6 -80 -9 -34 -3 -73
-8 -87 -10 -14 -2 -50 -7 -80 -10 -30 -3 -72 -8 -92 -10 -21 -3 -55 -7 -75
-10 -21 -2 -63 -7 -93 -10 -30 -3 -89 -10 -130 -15 -41 -6 -93 -12 -115 -15
-22 -3 -65 -8 -95 -11 -72 -7 -117 -12 -160 -18 -19 -3 -55 -7 -80 -10 -25 -3
-83 -10 -130 -15 -47 -6 -112 -13 -145 -16 -33 -3 -71 -8 -85 -10 -14 -3 -52
-7 -85 -10 -33 -4 -70 -8 -83 -10 -13 -2 -53 -7 -90 -10 -37 -4 -74 -8 -82
-10 -8 -3 -44 -7 -80 -10 -36 -3 -76 -8 -90 -10 -14 -2 -52 -6 -85 -10 -33 -3
-76 -8 -95 -10 -399 -51 -500 -53 -611 -9 l-41 17 6 76 c3 42 8 87 10 101 40
232 50 287 55 298 5 10 15 7 42 -11 33 -22 34 -25 33 -83 -1 -32 -4 -90 -7
-129 -4 -62 -2 -75 21 -116 l25 -45 27 25 c34 31 51 67 120 239 29 73 54 132
55 130 2 -2 6 -32 10 -68 4 -36 9 -73 11 -84 2 -10 6 -44 9 -75 9 -87 35 -122
78 -105 25 9 40 39 97 197 l54 149 18 -64 c10 -35 27 -95 38 -133 11 -39 30
-85 43 -103 l24 -32 37 40 c22 24 36 51 37 68 2 56 10 89 41 150 17 35 34 65
38 67 4 2 23 -24 43 -58 27 -45 37 -73 37 -105 0 -40 22 -102 37 -102 3 0 21
9 39 20 35 22 40 32 50 95 8 53 29 96 62 128 l28 27 36 -63 c20 -34 48 -90 63
-125 16 -34 30 -60 33 -57 3 3 17 32 32 65 14 33 48 87 75 121 l48 63 38 -80
c21 -43 49 -92 61 -107 l23 -28 75 115 74 114 41 -61 c22 -34 49 -82 60 -107
10 -25 22 -48 25 -53 4 -4 42 42 85 103 l79 110 25 -43 c44 -74 57 -87 92 -97
54 -16 67 -13 74 19 12 56 60 116 111 141 46 22 62 24 234 25 195 1 198 2 271
55 l38 27 -47 23 -47 24 -585 5 c-713 5 -1441 10 -1610 11 -114 0 -128 2 -165
24 l-40 25 36 15 c30 12 111 15 490 17 434 2 456 3 504 23 l50 21 -50 11 c-32
7 -216 11 -510 11 -296 1 -477 5 -508 12 -96 22 -155 81 -172 174 -5 26 -19
47 -43 67 -20 17 -39 30 -43 30 -4 0 -12 -21 -19 -47 -12 -45 -55 -152 -65
-161 -6 -6 -41 35 -60 70 -8 15 -22 59 -30 98 -21 98 -9 157 36 181 22 11 107
27 124 23 6 -2 42 -5 80 -9z m-5841 -18 c45 -30 55 -106 31 -242 -3 -16 -10
-54 -15 -84 -9 -47 -72 -181 -86 -181 -3 0 -19 29 -36 65 l-30 66 15 60 c17
66 15 96 -9 147 l-15 32 -30 -17 c-38 -22 -46 -37 -47 -88 -2 -54 -29 -152
-52 -189 -34 -56 -83 -94 -150 -117 l-65 -22 -1100 -3 c-605 -2 -1130 -5
-1167 -7 -64 -5 -128 -33 -128 -57 0 -15 50 -60 68 -61 9 0 78 -2 153 -4 174
-5 291 -34 359 -90 14 -12 41 -52 60 -89 19 -38 43 -74 53 -80 25 -15 48 17
82 116 43 122 72 125 134 10 17 -31 46 -75 65 -96 l34 -39 12 44 c20 75 81
169 110 169 14 0 84 -94 116 -154 16 -31 32 -56 35 -56 3 0 20 33 38 73 17 39
46 87 63 106 l31 35 32 -39 c18 -21 50 -73 71 -116 22 -43 41 -78 44 -78 3 0
16 22 30 51 35 71 99 160 113 155 19 -6 68 -91 73 -127 3 -18 19 -55 36 -82
l31 -50 19 23 c32 40 50 89 55 153 6 80 27 105 73 86 39 -16 48 -33 56 -111 7
-72 27 -116 75 -172 l32 -38 19 58 c10 32 18 89 18 126 0 67 27 147 50 147 5
0 27 -17 48 -37 32 -31 41 -48 46 -88 15 -107 19 -117 59 -157 l41 -41 17 39
c9 22 29 92 44 158 24 100 31 116 41 101 19 -26 91 -203 109 -267 10 -37 24
-64 41 -77 34 -27 48 -26 67 2 14 22 20 57 33 207 4 41 8 82 10 90 1 8 3 26 4
40 1 28 11 2 82 -205 34 -99 41 -134 42 -201 1 -88 -7 -104 -61 -125 -28 -11
-117 -13 -160 -5 -12 3 -50 7 -85 11 -35 3 -74 7 -88 10 -14 2 -47 7 -75 10
-27 3 -66 7 -85 10 -19 2 -57 7 -85 10 -27 3 -61 7 -75 10 -14 2 -52 7 -85 10
-33 3 -71 8 -85 10 -14 2 -70 9 -125 15 -55 6 -111 13 -125 15 -14 2 -50 6
-80 10 -30 3 -66 8 -80 10 -14 2 -50 7 -80 10 -57 6 -104 12 -167 20 -21 2
-56 7 -78 9 -127 15 -274 33 -335 41 -39 5 -87 11 -170 20 -78 9 -120 14 -160
20 -19 2 -60 7 -90 10 -30 3 -68 8 -85 10 -44 6 -182 23 -245 30 -30 4 -66 8
-80 10 -14 2 -50 7 -80 10 -30 3 -67 8 -81 11 -14 2 -52 6 -85 9 -32 3 -70 8
-84 10 -14 2 -52 7 -85 11 -33 3 -67 7 -75 9 -8 1 -46 5 -85 10 -38 4 -77 9
-85 10 -9 2 -43 6 -75 10 -33 4 -71 8 -85 10 -14 2 -52 7 -85 10 -33 3 -85 10
-115 15 -30 5 -86 12 -125 15 -38 4 -79 9 -90 11 -11 2 -45 6 -75 9 -30 3 -66
7 -80 9 -14 3 -52 7 -85 11 -32 4 -66 8 -75 10 -8 2 -44 6 -80 9 -36 4 -75 8
-85 10 -11 2 -47 7 -80 10 -33 4 -71 9 -85 11 -14 2 -46 6 -72 9 -27 3 -69 9
-95 12 -27 3 -59 7 -73 9 -14 2 -52 7 -85 11 -33 3 -67 7 -75 9 -15 3 -93 12
-160 20 -131 15 -203 30 -255 54 l-60 28 49 21 c60 27 117 43 175 48 59 5 117
12 161 18 52 7 131 17 167 21 61 6 158 17 183 20 14 2 50 6 80 10 30 3 89 10
130 15 41 5 100 12 130 15 55 6 91 10 165 19 22 3 65 8 95 11 30 3 71 8 90 10
56 7 111 14 170 20 30 3 71 8 90 10 19 2 60 7 90 10 30 4 66 8 80 10 14 2 54
7 90 10 36 3 72 8 80 10 8 2 49 7 90 10 41 4 83 9 92 10 9 2 49 6 90 10 40 3
80 8 88 10 8 2 44 7 80 11 36 3 79 8 95 10 17 2 53 6 80 9 28 2 64 7 80 10 17
2 59 7 95 10 36 3 76 8 90 10 14 2 54 7 90 10 36 4 72 8 80 10 8 1 44 6 80 9
36 4 82 9 103 12 20 2 54 6 75 8 20 3 60 8 87 11 28 3 70 8 94 10 24 3 60 7
80 9 20 3 64 8 99 11 35 4 71 8 81 10 9 2 49 6 87 10 38 4 83 8 99 11 17 2 55
6 85 9 30 3 71 7 90 10 50 7 107 13 170 20 30 3 71 8 90 10 44 6 99 12 175 21
33 3 67 8 76 9 9 2 52 6 95 10 43 4 81 9 84 10 3 2 39 6 80 10 41 4 84 9 95
11 11 2 49 7 83 10 35 3 71 7 80 9 10 1 51 6 92 10 41 4 76 8 78 10 10 10 146
-5 166 -18z m5721 -527 c3 -5 2 -10 -4 -10 -5 0 -13 5 -16 10 -3 6 -2 10 4 10
5 0 13 -4 16 -10z m5236 -460 c36 -15 68 -77 76 -146 12 -104 4 -400 -12 -464
-2 -8 -6 -46 -10 -85 -8 -84 -14 -136 -35 -270 -5 -33 -11 -78 -15 -100 -12
-84 -54 -310 -85 -451 -114 -531 -320 -1155 -534 -1617 -20 -43 -36 -80 -36
-82 0 -2 -45 -95 -99 -207 -172 -352 -336 -640 -540 -948 -63 -96 -119 -179
-123 -185 -5 -5 -60 -80 -124 -165 -93 -126 -294 -377 -339 -424 -6 -6 -28
-33 -50 -61 -77 -96 -103 -115 -157 -115 -95 0 -238 160 -238 264 1 60 28 111
122 227 294 365 598 794 759 1074 293 509 469 900 612 1355 96 305 174 612
262 1026 19 93 39 187 45 209 5 22 11 55 15 72 3 18 12 61 20 95 8 35 16 77
19 93 3 17 19 95 37 175 40 187 38 179 45 220 31 195 74 253 203 275 19 3 45
14 58 25 l25 19 -29 6 c-15 4 -38 8 -51 11 -13 3 -42 23 -65 45 l-42 39 34 30
c62 53 193 84 252 60z m-16109 -26 c97 -28 173 -113 192 -217 13 -71 25 -146
30 -187 4 -25 8 -54 10 -65 2 -11 7 -45 10 -75 4 -30 8 -66 11 -80 2 -14 11
-77 20 -140 9 -63 18 -126 20 -140 4 -25 15 -98 20 -135 1 -11 5 -33 8 -50 3
-16 13 -73 22 -125 59 -343 165 -754 285 -1105 48 -139 164 -442 185 -482 8
-16 15 -31 15 -35 0 -4 13 -35 29 -70 16 -35 44 -94 61 -133 151 -329 371
-720 593 -1055 68 -102 286 -410 297 -420 3 -3 44 -54 90 -115 47 -60 117
-148 155 -195 92 -111 104 -131 108 -177 6 -68 -17 -106 -125 -214 -101 -100
-149 -101 -236 -7 -33 36 -202 232 -261 303 -57 69 -230 300 -308 410 -345
492 -670 1097 -918 1715 -68 168 -209 559 -219 605 -1 6 -10 35 -19 65 -66
213 -165 609 -201 805 -30 159 -61 340 -71 415 -3 25 -8 56 -10 70 -2 14 -7
50 -10 80 -3 30 -8 66 -10 80 -2 14 -7 54 -10 90 -4 36 -8 81 -10 100 -23 222
-23 322 0 375 8 21 31 58 51 82 33 41 38 43 87 43 28 0 77 -7 109 -16z m773
-77 c42 -14 93 -53 109 -85 13 -26 20 -57 31 -132 2 -19 11 -84 20 -145 18
-131 23 -167 30 -220 2 -22 14 -109 26 -192 26 -179 21 -213 -35 -251 -82 -55
-231 -71 -310 -32 -36 17 -50 32 -71 73 -14 29 -27 75 -30 102 -3 28 -7 57
-10 65 -2 8 -7 35 -10 60 -8 58 -12 86 -20 138 -4 23 -8 52 -9 65 -4 33 -18
130 -21 147 -2 8 -6 44 -10 80 -4 36 -9 74 -11 85 -10 48 -12 158 -3 185 11
29 40 54 74 63 35 8 219 4 250 -6z m14637 -18 l39 -20 -53 -36 c-29 -20 -71
-49 -92 -65 -21 -15 -44 -28 -49 -28 -6 0 -44 21 -84 46 -88 55 -88 54 52 102
97 34 122 34 187 1z m-760 -81 c26 -13 48 -25 48 -28 -1 -10 -36 -47 -60 -62
-21 -13 -64 -22 -215 -43 -11 -2 -42 -6 -70 -10 -27 -4 -58 -9 -68 -11 -10 -2
-48 -6 -85 -10 -37 -3 -70 -8 -73 -9 -3 -2 -33 -6 -67 -10 -108 -10 -206 -32
-256 -59 -46 -24 -47 -25 -21 -32 46 -11 187 -6 297 11 13 2 55 6 93 10 39 4
77 8 85 10 8 2 44 6 80 10 36 4 97 13 135 20 39 7 100 12 137 12 59 -2 71 -5
95 -30 27 -26 28 -32 27 -120 -1 -132 -68 -505 -145 -812 -237 -944 -636
-1779 -1225 -2560 -164 -218 -203 -255 -257 -241 -46 11 -93 65 -385 440 -112
144 -214 273 -227 288 -62 70 -98 138 -100 189 -5 81 8 107 141 294 57 79 274
420 274 429 0 3 14 29 31 58 48 81 191 370 244 492 149 345 298 812 359 1126
2 14 10 50 16 80 6 30 21 114 34 185 43 243 97 296 321 320 33 4 71 8 85 10
24 4 115 14 170 20 39 4 122 15 150 20 14 3 52 7 85 11 33 3 62 8 65 9 3 2 39
6 80 10 41 4 76 8 78 10 9 9 84 -7 124 -27z m-12924 -22 c12 -3 80 -8 150 -11
70 -3 138 -8 152 -10 14 -2 49 -7 78 -10 100 -12 196 -55 245 -110 36 -40 77
-141 101 -249 21 -94 36 -167 72 -356 27 -143 194 -688 244 -795 5 -11 28 -67
51 -125 60 -152 214 -465 304 -621 74 -128 208 -335 312 -484 101 -143 122
-250 70 -350 -28 -54 -35 -62 -171 -205 -51 -52 -123 -131 -161 -174 -39 -44
-77 -87 -85 -96 -8 -9 -40 -45 -70 -80 -30 -36 -70 -81 -88 -100 -19 -19 -45
-58 -58 -87 -13 -29 -35 -60 -49 -69 -23 -15 -27 -15 -52 2 -41 26 -8 -20
-338 479 -482 729 -642 1016 -827 1490 -135 343 -271 821 -337 1185 -6 36 -14
76 -17 90 -2 14 -7 41 -10 60 -2 19 -7 46 -9 60 -3 14 -7 43 -10 65 -3 22 -8
51 -10 65 -2 14 -7 43 -10 65 -3 22 -9 68 -13 102 -5 34 -7 88 -6 120 3 56 29
133 45 133 7 0 57 -60 73 -87 4 -7 15 -63 26 -125 10 -62 21 -128 24 -145 3
-18 8 -45 10 -60 13 -83 19 -120 22 -138 3 -11 6 -33 8 -50 3 -16 7 -43 10
-60 3 -16 7 -48 11 -70 3 -23 7 -52 10 -65 3 -13 7 -42 10 -65 14 -97 35 -176
59 -224 15 -28 28 -51 30 -51 2 0 -1 24 -6 53 -5 28 -11 68 -14 87 -2 19 -9
60 -14 90 -18 107 -21 125 -25 150 -2 14 -6 39 -8 55 -3 17 -8 50 -12 75 -13
85 -16 105 -25 160 -5 30 -12 73 -15 95 -3 22 -8 63 -12 90 -5 28 -8 93 -8
146 0 107 10 128 70 155 29 13 212 13 273 0z m13662 -96 c14 -7 32 -22 40 -34
20 -27 48 -107 45 -127 -2 -8 -6 -42 -9 -75 -7 -60 -8 -69 -21 -159 -4 -27 -9
-63 -10 -80 -2 -16 -10 -68 -19 -115 -8 -47 -18 -103 -22 -125 -17 -114 -71
-167 -164 -163 -133 5 -255 68 -280 143 -12 36 -12 105 1 140 3 11 9 40 13 65
3 25 8 59 11 75 7 47 15 106 21 155 14 122 49 208 101 246 100 74 215 95 293
54z m-12470 -45 c25 -2 83 -7 130 -11 47 -3 92 -7 101 -9 8 -1 42 -6 75 -9 32
-3 75 -8 94 -11 44 -6 100 -12 170 -20 30 -4 66 -8 80 -10 14 -2 54 -6 90 -10
36 -4 76 -8 90 -10 14 -2 50 -7 80 -10 30 -3 71 -7 90 -10 19 -2 64 -7 100
-10 36 -4 76 -8 90 -10 14 -2 54 -6 90 -10 130 -13 174 -22 225 -47 89 -45
121 -94 179 -283 44 -142 89 -262 114 -307 11 -18 33 -58 50 -88 93 -166 101
-304 26 -452 -33 -64 -52 -91 -174 -238 -136 -162 -327 -407 -534 -679 -245
-324 -251 -331 -318 -331 -52 0 -101 50 -210 216 -275 417 -490 858 -636 1304
-48 147 -100 323 -107 362 -3 15 -9 37 -14 50 -5 13 -9 26 -9 31 0 4 -3 20 -6
35 -28 125 -45 208 -51 237 -3 17 -8 45 -11 64 -3 18 -8 43 -10 55 -12 57 -15
154 -5 179 15 39 61 56 120 45 25 -4 66 -10 91 -13z m10290 -12 c39 -35 46
-91 25 -202 -8 -42 -16 -87 -19 -101 -26 -155 -106 -465 -179 -700 -132 -421
-378 -927 -650 -1335 -132 -198 -171 -237 -227 -228 -44 7 -67 30 -195 195
-69 90 -136 177 -149 193 -278 351 -664 863 -683 905 -55 122 -32 286 75 520
82 181 166 285 273 338 59 28 83 35 178 48 19 2 48 7 65 10 65 11 85 13 226
29 80 9 161 18 180 20 19 2 62 7 95 10 33 3 76 8 95 10 19 3 114 14 211 25 96
11 184 22 195 24 37 7 100 17 139 22 57 7 108 21 129 37 18 13 15 15 -33 27
-31 7 -76 10 -105 7 -28 -4 -94 -11 -146 -17 -52 -5 -115 -12 -140 -15 -25 -3
-70 -7 -100 -10 -88 -9 -143 -15 -180 -20 -19 -2 -62 -7 -95 -10 -80 -7 -152
-15 -195 -20 -19 -2 -64 -7 -100 -10 -36 -3 -81 -8 -100 -10 -34 -4 -139 -13
-211 -19 -21 -2 -57 7 -88 20 l-53 24 47 40 c25 22 52 41 58 41 27 3 55 7 102
13 28 4 68 9 90 12 108 11 142 15 165 19 14 2 50 7 80 9 30 3 111 12 180 20
69 9 148 18 175 20 81 9 147 16 185 21 19 2 62 7 95 10 33 4 71 8 85 10 14 2
57 7 95 11 39 3 78 8 87 10 9 1 48 6 85 9 37 4 69 8 70 9 1 1 31 3 67 4 59 3
67 1 96 -25z m-7552 -915 c195 -292 215 -326 208 -354 -7 -25 -10 -26 -51 -21
-35 3 -60 17 -117 63 -40 32 -75 61 -78 64 -10 11 -97 80 -102 80 -3 0 16 -42
43 -92 60 -118 78 -187 73 -279 -9 -153 22 -118 -1250 -1403 -427 -430 -442
-447 -462 -505 -21 -61 -21 -61 -1 -61 11 0 41 5 67 12 40 10 67 31 192 153
187 181 248 213 330 174 43 -21 116 -39 125 -31 12 12 4 65 -20 128 -24 65
-33 123 -17 125 4 0 16 2 26 4 11 2 51 -7 90 -19 67 -22 166 -34 166 -21 0 3
-11 27 -25 52 -22 38 -55 139 -55 165 0 5 20 6 45 3 25 -3 65 -7 90 -10 24 -3
65 -9 90 -14 l46 -9 -4 42 c-3 23 -19 74 -36 115 -33 78 -35 85 -23 78 6 -4
56 -13 132 -23 14 -1 39 -5 55 -8 17 -3 51 -8 77 -11 l47 -6 -26 47 c-14 26
-44 83 -65 126 l-38 80 57 -6 c92 -10 121 -16 194 -40 38 -12 69 -21 69 -19 0
2 -20 65 -45 140 -25 74 -45 140 -45 145 0 23 136 -28 198 -74 49 -37 69 -43
128 -39 38 2 20 70 -40 159 -29 42 -62 94 -75 114 l-22 37 73 -28 c40 -16 98
-35 128 -45 56 -16 170 -36 170 -29 0 22 -62 112 -115 167 -62 65 -67 72 -61
105 10 66 40 65 171 -7 149 -81 245 -131 245 -128 0 2 -128 176 -148 201 -34
42 -52 87 -52 129 l0 46 48 0 c42 0 59 -9 172 -85 194 -132 236 -181 210 -244
-24 -58 -28 -62 -640 -557 -360 -292 -683 -553 -700 -567 -8 -7 -60 -48 -115
-92 -55 -44 -102 -82 -105 -85 -3 -3 -202 -165 -444 -360 -241 -195 -552 -447
-690 -559 -138 -112 -267 -216 -286 -231 -19 -16 -111 -90 -205 -166 -459
-373 -591 -479 -715 -579 -74 -60 -137 -112 -140 -115 -3 -3 -36 -30 -75 -60
-38 -30 -81 -65 -95 -77 -14 -12 -41 -35 -60 -52 -19 -16 -52 -40 -72 -51
l-38 -21 0 33 c0 18 6 44 13 58 11 20 267 360 416 551 20 25 47 60 61 79 14
18 66 85 115 149 50 64 122 157 160 206 38 50 224 290 414 535 190 245 383
495 430 556 47 60 208 267 356 459 149 191 295 380 325 420 30 39 67 87 82
106 15 19 79 102 143 184 64 83 121 157 128 165 7 8 91 116 187 240 417 539
497 639 556 700 34 36 73 77 86 92 13 15 24 27 25 27 2 1 42 -59 91 -131z
m4760 58 c27 -14 115 -100 165 -161 13 -16 235 -302 492 -635 257 -333 478
-617 489 -631 12 -14 32 -40 46 -59 26 -34 603 -781 645 -835 25 -31 496 -641
565 -730 177 -230 206 -268 460 -596 96 -124 186 -241 200 -259 14 -18 89
-114 168 -214 182 -232 209 -272 217 -324 l7 -44 -33 18 c-27 13 -540 416
-639 501 -14 11 -68 55 -120 97 -52 42 -102 82 -110 89 -8 7 -62 50 -120 97
-58 47 -114 92 -125 102 -11 9 -180 146 -375 304 -195 158 -369 298 -386 313
-17 14 -49 40 -70 57 -21 17 -178 145 -349 283 -170 139 -323 262 -338 274
-16 12 -34 27 -40 32 -7 6 -61 51 -122 100 -60 49 -157 127 -215 174 -58 47
-113 93 -124 101 -11 8 -35 29 -55 46 -20 17 -106 86 -191 155 -85 68 -157
126 -160 129 -3 3 -27 23 -55 46 -27 22 -172 140 -322 262 -150 123 -306 245
-347 272 -77 51 -92 67 -100 113 -9 53 92 170 182 209 90 40 166 9 327 -133
74 -66 207 -170 183 -143 -43 47 -248 325 -249 338 -1 6 -2 23 -3 37 -3 25 -1
26 25 19 15 -5 30 -5 34 -2 8 8 805 -795 1455 -1468 227 -235 452 -461 472
-474 36 -23 95 -29 102 -10 10 26 7 72 -6 86 -7 7 -38 42 -69 78 -31 36 -193
203 -360 371 -464 468 -1059 1071 -1203 1218 -71 73 -158 158 -194 189 -70 62
-104 116 -98 159 4 32 134 296 179 363 63 94 106 117 165 86z m-9132 -1152
c68 -78 78 -98 62 -127 -7 -13 -34 -42 -59 -65 l-47 -42 -48 40 c-48 39 -73
73 -74 98 0 14 100 151 111 152 4 0 29 -25 55 -56z m13551 -57 c65 -62 72 -72
56 -81 -10 -5 -22 -13 -28 -18 -35 -29 -103 -76 -117 -81 -22 -8 -91 53 -124
109 -22 38 -24 47 -13 62 41 53 101 92 131 84 12 -3 55 -37 95 -75z m-7282
-42 c95 -24 296 -98 288 -106 -5 -4 -19 -10 -33 -13 -28 -5 -119 -33 -228 -68
l-73 -23 43 -42 c39 -37 49 -42 107 -47 36 -4 82 -11 103 -18 73 -22 131 -90
155 -183 3 -11 6 -555 7 -1210 1 -654 5 -1201 9 -1215 3 -14 17 -33 29 -43 22
-18 23 -18 40 3 20 25 20 25 19 265 0 251 20 296 166 367 34 17 63 38 66 48 7
27 -28 55 -107 84 -81 29 -101 45 -91 75 7 24 53 50 135 76 142 46 145 69 18
135 -48 25 -93 50 -99 56 -19 20 6 49 76 85 82 42 106 66 94 96 -6 16 -24 27
-66 39 -144 41 -190 78 -144 115 11 9 56 32 98 49 43 18 93 45 111 61 l33 29
-33 20 c-29 17 -135 64 -192 84 -17 6 -16 9 10 32 47 40 96 68 126 70 31 3
120 53 121 69 1 21 -84 68 -171 94 l-91 27 93 47 c51 26 117 52 145 58 36 7
57 18 68 35 14 23 14 26 -3 47 -28 32 -41 39 -88 43 -22 1 -81 18 -129 37
l-88 34 90 41 c50 23 105 45 123 49 43 8 78 26 102 51 22 25 16 37 -36 63 -34
18 -51 20 -113 14 -68 -7 -77 -5 -124 20 l-50 28 27 33 c15 18 45 42 67 53 43
22 62 26 207 46 39 5 53 13 75 41 29 38 29 38 -27 68 -21 12 -60 21 -130 32
-8 1 -51 7 -95 14 -44 7 -86 13 -92 13 -21 1 -8 8 79 44 121 50 240 82 327 89
67 6 79 4 101 -14 22 -18 25 -28 25 -94 1 -40 -2 -91 -6 -113 -4 -22 -10 -73
-14 -113 -3 -41 -8 -81 -10 -90 -1 -9 -6 -48 -9 -87 -7 -70 -14 -133 -21 -190
-2 -16 -7 -61 -10 -100 -4 -38 -8 -80 -10 -93 -2 -13 -7 -53 -10 -90 -4 -37
-8 -74 -10 -82 -2 -8 -7 -51 -11 -95 -3 -44 -7 -82 -9 -85 -2 -3 -6 -43 -10
-90 -4 -47 -8 -87 -10 -90 -2 -3 -6 -43 -10 -90 -4 -47 -9 -93 -10 -102 -2 -9
-6 -45 -10 -80 -3 -35 -7 -74 -10 -88 -4 -24 -9 -73 -20 -185 -3 -27 -7 -66
-10 -85 -2 -19 -7 -60 -10 -90 -3 -30 -8 -71 -10 -90 -2 -19 -7 -60 -10 -90
-4 -30 -8 -66 -10 -80 -2 -14 -6 -52 -9 -85 -4 -33 -8 -71 -11 -85 -2 -14 -7
-56 -10 -95 -3 -38 -8 -83 -10 -100 -3 -16 -7 -51 -10 -77 -3 -27 -7 -67 -10
-90 -3 -24 -7 -64 -10 -90 -3 -27 -7 -69 -10 -95 -6 -51 -12 -107 -20 -175 -6
-48 -14 -121 -20 -188 -2 -25 -7 -65 -10 -90 -16 -134 -25 -209 -30 -264 -2
-22 -6 -62 -10 -90 -8 -68 -13 -108 -21 -186 -3 -36 -7 -72 -9 -80 -1 -8 -6
-46 -9 -85 -4 -38 -9 -81 -11 -95 -2 -14 -9 -72 -15 -130 -6 -58 -13 -121 -16
-140 -8 -72 -16 -136 -19 -160 -2 -14 -6 -52 -10 -85 -5 -57 -9 -86 -20 -172
-2 -21 -7 -63 -10 -93 -3 -30 -8 -66 -10 -80 -2 -14 -6 -45 -10 -70 -9 -63
-88 -311 -96 -302 -6 6 -54 173 -65 227 -2 11 -6 31 -9 45 -2 14 -7 50 -10 80
-3 30 -8 66 -10 80 -2 14 -7 54 -10 90 -3 36 -7 76 -9 90 -3 14 -7 57 -11 95
-4 39 -8 77 -10 85 -2 8 -6 49 -10 90 -3 41 -8 82 -10 90 -2 8 -6 46 -10 83
-3 37 -8 76 -9 85 -2 9 -7 49 -10 87 -4 39 -9 81 -11 95 -2 14 -6 52 -10 85
-3 33 -10 98 -16 145 -5 47 -12 105 -15 130 -3 25 -7 59 -9 75 -2 17 -7 62
-10 100 -4 39 -8 77 -10 85 -2 8 -7 51 -11 95 -3 44 -8 82 -9 85 -2 3 -6 41
-10 85 -3 44 -8 87 -10 95 -2 8 -7 48 -10 89 -4 41 -8 82 -10 90 -2 9 -6 45
-9 81 -7 68 -13 121 -21 180 -2 19 -7 60 -10 90 -3 30 -8 71 -10 90 -2 19 -7
60 -10 90 -3 30 -8 71 -10 90 -3 19 -7 58 -10 85 -3 28 -7 66 -10 85 -2 19 -6
62 -10 95 -3 33 -7 76 -10 95 -2 19 -7 55 -10 80 -2 25 -7 63 -9 85 -3 22 -8
68 -11 103 -4 35 -8 73 -10 84 -3 12 -7 52 -10 90 -4 38 -8 76 -9 86 -2 9 -7
51 -11 92 -4 41 -9 82 -10 90 -2 9 -6 47 -10 85 -3 39 -8 81 -10 95 -3 23 -9
78 -21 190 -2 25 -6 61 -9 80 -3 19 -7 60 -10 90 -5 52 -7 73 -21 180 -3 25
-7 65 -10 90 -2 25 -6 61 -8 80 -5 35 -12 95 -21 180 -2 25 -7 56 -9 69 -5 23
-15 98 -18 131 -4 45 5 73 34 106 57 64 113 77 223 49z m-1368 -350 c23 -16
44 -75 45 -125 l1 -27 51 13 c28 8 87 14 131 13 126 -3 237 -39 405 -134 41
-23 116 -64 165 -90 114 -61 111 -59 121 -103 4 -20 8 -41 9 -47 2 -9 6 -43
21 -165 3 -25 7 -58 9 -75 2 -16 9 -70 15 -120 6 -49 13 -106 16 -126 2 -20 6
-56 8 -80 3 -24 7 -71 11 -104 4 -33 9 -71 10 -85 8 -74 16 -148 20 -170 3
-14 7 -52 10 -85 4 -33 8 -71 10 -85 2 -14 7 -51 10 -83 4 -32 8 -67 10 -79 3
-11 7 -53 11 -92 3 -39 8 -74 10 -78 2 -3 7 -44 10 -90 10 -135 -21 -179 -126
-181 -195 -2 -946 204 -1245 343 -11 5 -72 32 -135 60 -236 105 -509 258 -745
418 -265 179 -307 229 -265 312 22 43 19 40 320 280 135 107 256 205 270 217
124 107 683 548 715 563 48 24 73 25 102 5z m3732 -50 c14 -13 206 -168 426
-345 220 -177 414 -333 430 -347 17 -14 88 -70 159 -126 208 -164 245 -210
226 -279 -15 -54 -61 -95 -247 -221 -561 -380 -1217 -655 -1893 -792 -274 -56
-336 -54 -371 12 -18 34 -16 137 6 283 2 14 7 50 10 80 7 66 15 136 20 170 2
14 9 70 15 125 6 55 13 111 15 125 2 14 6 50 10 80 4 30 8 66 10 80 2 14 6 50
10 80 17 145 25 210 30 240 2 14 7 50 10 80 4 30 8 66 10 80 2 14 6 48 10 75
3 28 8 59 10 70 2 11 4 32 4 46 1 30 79 125 92 112 15 -15 48 -122 44 -142 -2
-11 -6 -62 -10 -113 -9 -147 -20 -281 -30 -373 -2 -22 -7 -76 -11 -120 -3 -44
-9 -84 -12 -90 -3 -7 -1 -7 6 0 5 6 13 33 17 60 3 28 12 82 20 120 28 138 57
313 70 420 16 124 33 188 73 273 36 79 133 174 214 212 131 60 287 58 443 -6
33 -14 71 -27 84 -30 22 -5 22 -3 -12 45 -60 84 -60 97 7 149 27 21 30 21 54
6 13 -9 36 -27 51 -39z m-7845 -825 c23 -11 55 -39 73 -63 252 -334 417 -562
446 -616 l36 -66 -65 -90 c-35 -49 -85 -112 -110 -138 -54 -56 -64 -56 -157 0
-76 46 -175 165 -458 553 -108 147 -121 186 -90 254 26 53 35 64 101 113 54
40 125 72 164 73 11 0 38 -9 60 -20z m11906 -9 c98 -37 198 -133 220 -209 11
-41 -43 -139 -183 -330 -68 -92 -130 -176 -139 -187 -140 -172 -156 -189 -205
-214 -49 -24 -144 -61 -159 -61 -14 0 -131 198 -151 256 -14 42 -14 46 7 87
51 97 267 404 347 492 10 11 35 40 55 65 66 81 85 99 109 109 34 14 43 13 99
-8z m-9419 -474 c19 -8 86 -52 149 -99 647 -475 1331 -782 2105 -943 44 -9 94
-19 110 -21 376 -57 440 -104 460 -339 5 -66 8 -93 20 -197 2 -24 7 -70 10
-103 3 -33 8 -70 10 -82 2 -12 6 -57 10 -100 4 -43 8 -89 11 -103 2 -14 7 -85
10 -157 7 -147 -5 -204 -48 -233 -31 -20 -159 -21 -279 -4 -86 13 -302 48
-374 60 -109 19 -423 89 -465 104 -14 5 -36 12 -50 14 -152 28 -735 232 -970
339 -101 46 -431 209 -515 255 -349 190 -839 513 -947 624 -68 71 -64 117 21
209 103 113 104 112 -77 63 -86 -24 -157 -42 -159 -40 -7 6 156 215 207 265
30 29 138 122 239 205 102 83 208 172 235 197 66 58 110 89 144 99 37 10 102
5 143 -13z m6975 -6 c33 -15 197 -138 214 -161 3 -3 73 -60 155 -126 83 -65
152 -121 155 -124 3 -3 32 -28 65 -54 210 -168 287 -251 266 -283 -11 -17 -47
-32 -89 -38 -23 -2 -47 -6 -54 -7 -13 -3 -57 -59 -59 -75 -2 -24 -92 -134
-143 -175 -170 -136 -551 -390 -771 -513 -204 -114 -408 -219 -545 -279 -195
-87 -255 -111 -412 -170 -280 -105 -768 -246 -939 -271 -24 -4 -46 -8 -49 -10
-4 -2 -60 -13 -126 -24 -217 -38 -250 -43 -319 -46 -67 -4 -103 10 -133 52
-16 23 -71 174 -89 243 -3 8 -30 -47 -62 -122 -32 -76 -60 -140 -63 -143 -6
-6 -36 104 -46 165 -9 57 -3 199 13 310 2 14 6 52 10 85 3 33 10 87 15 120 5
33 11 92 15 130 12 130 23 200 40 261 26 91 83 131 221 158 43 8 165 32 269
52 319 61 554 127 888 250 164 61 478 206 667 310 170 93 362 215 585 375 115
82 207 129 250 129 17 0 48 -9 71 -19z m1189 -960 c17 -11 53 -40 80 -65 28
-26 57 -48 65 -51 14 -5 75 -113 68 -120 -2 -2 -37 2 -78 10 -72 12 -155 46
-230 93 -19 12 -39 23 -44 25 -13 4 20 74 48 102 30 30 51 31 91 6z m-9425
-10 c0 -5 -18 -59 -40 -120 -22 -61 -38 -111 -36 -111 2 0 51 20 108 44 142
61 159 62 233 22 146 -79 412 -299 434 -359 20 -54 -58 -229 -122 -277 -58
-43 -112 -58 -140 -40 -12 8 -78 49 -147 92 -167 103 -222 143 -286 206 -60
60 -107 136 -126 205 -10 38 -16 47 -35 47 -41 0 -123 22 -138 37 -23 22 -18
56 14 100 38 53 76 79 180 124 94 41 101 43 101 30z m9336 -176 c129 -165 138
-215 53 -306 -32 -33 -209 -176 -386 -311 -163 -124 -221 -115 -328 51 -102
157 -79 234 108 360 70 47 474 279 488 280 3 1 33 -33 65 -74z m-9877 -257
c17 -18 42 -74 56 -124 2 -7 59 -39 127 -72 90 -45 158 -88 253 -163 197 -153
514 -376 675 -473 25 -15 79 -48 120 -73 348 -213 854 -460 1239 -605 103 -39
386 -138 406 -142 6 -2 55 -16 110 -33 243 -76 646 -174 845 -207 19 -3 46 -8
60 -11 14 -3 45 -8 69 -11 25 -3 47 -7 51 -9 3 -2 41 -8 85 -14 44 -6 91 -13
105 -15 14 -3 68 -10 120 -16 52 -6 109 -13 125 -15 17 -2 79 -9 139 -14 194
-19 264 -73 292 -227 19 -107 2 -189 -46 -218 -53 -31 -128 -31 -347 -1 -74
11 -100 14 -148 20 -27 4 -61 8 -74 10 -13 2 -45 7 -70 10 -86 11 -316 46
-366 55 -27 5 -66 12 -85 14 -33 5 -87 15 -202 35 -53 10 -146 28 -228 46 -14
3 -34 7 -45 9 -11 2 -38 9 -60 14 -22 6 -51 13 -65 16 -83 14 -354 90 -540
151 -777 253 -1507 641 -2255 1200 -127 95 -237 179 -245 186 -8 8 -33 28 -55
44 -22 17 -55 44 -73 60 -19 17 -40 34 -49 38 -29 17 -72 97 -67 125 4 25 60
114 114 185 25 32 24 32 -72 11 -40 -8 -84 -18 -98 -20 -14 -3 -43 -9 -65 -14
-22 -5 -41 -7 -43 -5 -7 6 116 172 153 207 40 37 92 67 117 68 10 0 26 -10 37
-22z m10522 -63 c100 -36 145 -61 181 -101 63 -68 57 -112 -19 -146 l-45 -20
-29 34 c-30 34 -95 128 -115 163 -6 11 -21 37 -33 58 -13 20 -20 37 -16 37 4
0 38 -11 76 -25z m-94 -143 c21 -11 62 -41 89 -66 28 -24 63 -48 77 -51 15 -4
27 -10 27 -14 0 -10 -89 -142 -127 -189 -54 -66 -284 -250 -588 -470 -91 -66
-378 -254 -490 -321 -66 -39 -127 -76 -135 -81 -8 -5 -64 -37 -125 -71 -522
-293 -1084 -528 -1700 -708 -162 -47 -602 -151 -752 -177 -13 -2 -35 -6 -50
-9 -51 -9 -158 -27 -188 -31 -16 -2 -41 -6 -55 -8 -14 -3 -45 -8 -70 -11 -25
-4 -56 -8 -70 -10 -14 -2 -50 -6 -80 -10 -30 -3 -66 -8 -80 -10 -52 -9 -177
-18 -233 -18 -72 0 -109 29 -123 96 -25 115 -29 173 -14 203 65 134 137 163
520 210 19 2 46 6 60 9 14 2 41 7 60 10 19 3 60 10 90 15 30 5 71 12 90 15 19
3 46 8 60 10 14 3 36 7 50 10 675 128 1345 354 1905 645 331 171 767 440 1147
707 53 37 116 82 140 98 24 17 92 65 153 108 166 119 234 150 321 143 28 -2
69 -13 91 -24z m-2388 -614 c61 -115 60 -124 -31 -261 -7 -12 -92 40 -132 80
-14 14 -26 34 -26 44 0 19 127 219 139 219 3 0 26 -37 50 -82z m-5569 -22 c37
-37 60 -67 60 -81 0 -20 -20 -50 -74 -112 l-19 -22 -59 41 c-59 39 -80 70 -70
98 11 31 86 140 94 138 4 -2 35 -30 68 -62z m1540 -335 c30 -5 66 -12 80 -15
14 -3 43 -8 65 -11 38 -6 55 -8 155 -20 25 -3 52 -8 60 -10 8 -2 42 -6 75 -10
33 -3 69 -9 80 -12 19 -6 39 -9 76 -12 30 -2 100 -57 134 -105 61 -86 87 -212
55 -270 -33 -62 -184 -111 -280 -91 -14 3 -47 8 -75 11 -27 2 -56 7 -63 9 -7
3 -74 14 -150 25 -75 11 -148 22 -162 25 -13 2 -42 7 -65 10 -22 3 -51 8 -65
10 -14 3 -41 7 -60 10 -56 9 -123 47 -148 85 -21 30 -23 44 -19 95 6 74 39
180 70 226 44 67 90 76 237 50z m2570 4 c64 -29 106 -121 117 -254 12 -157
-46 -201 -307 -235 -25 -3 -54 -8 -65 -10 -11 -2 -42 -7 -70 -10 -27 -4 -61
-8 -75 -11 -14 -2 -41 -6 -60 -9 -19 -3 -57 -8 -85 -12 -62 -9 -77 -9 -145 0
-66 8 -193 48 -238 76 -31 19 -33 23 -27 63 3 23 19 87 36 143 30 98 32 101
58 96 39 -7 49 -18 66 -80 27 -91 47 -103 59 -35 14 78 27 111 44 116 9 3 58
16 107 30 78 22 318 93 439 130 59 18 108 19 146 2z m-902 -953 l40 -77 -60
-80 c-107 -144 -95 -139 -104 -43 -7 80 -9 120 -5 164 1 16 76 114 87 114 2 0
20 -35 42 -78z"/>
<path d="M9387 18649 c-15 -4 -47 -10 -70 -13 -23 -4 -53 -8 -67 -10 -14 -3
-43 -7 -65 -11 -62 -8 -103 -16 -185 -31 -41 -7 -86 -16 -100 -18 -43 -7 -183
-37 -220 -46 -19 -5 -49 -12 -67 -15 -18 -3 -43 -9 -57 -15 -15 -5 -26 -7 -26
-5 0 2 -11 0 -26 -5 -14 -6 -37 -12 -52 -15 -97 -17 -486 -136 -726 -223 -450
-161 -891 -369 -1311 -616 -432 -254 -950 -625 -992 -711 -5 -11 -11 -37 -12
-58 l-3 -38 41 5 c46 6 42 3 276 176 94 69 193 142 220 162 43 31 346 231 400
265 77 47 286 170 365 213 98 54 445 230 454 230 3 0 45 18 92 41 156 73 472
195 679 262 178 58 567 161 680 181 17 3 62 13 100 21 39 9 208 45 377 80 169
36 317 69 330 74 13 5 40 27 61 48 l38 40 -53 20 c-36 13 -63 17 -81 12z"/>
<path d="M8944 16744 c-16 -8 -61 -46 -99 -84 l-68 -68 33 -44 c19 -24 52 -60
74 -82 57 -55 95 -49 212 33 49 34 89 66 89 71 0 10 -135 152 -166 174 -29 20
-36 20 -75 0z"/>
<path d="M7111 15982 c-72 -79 -95 -123 -86 -160 5 -22 170 -202 185 -202 7 0
110 173 127 211 17 40 19 71 5 95 -9 18 -89 76 -158 117 -7 4 -38 -22 -73 -61z"/>
<path d="M11865 16778 c-89 -116 -98 -132 -90 -169 8 -36 72 -102 126 -130 51
-25 82 -16 134 42 39 43 50 76 40 117 -6 26 -119 217 -134 226 -4 3 -38 -36
-76 -86z"/>
<path d="M13628 15983 c-45 -35 -92 -98 -108 -144 -12 -34 -11 -39 11 -67 31
-38 107 -90 141 -96 33 -6 71 15 145 81 32 28 68 60 79 70 24 20 26 16 -46 74
-153 122 -164 126 -222 82z"/>
<path d="M4028 15473 c-44 -45 -119 -162 -336 -523 -153 -256 -290 -485 -304
-510 -14 -25 -48 -85 -77 -133 -28 -49 -51 -90 -51 -92 0 -2 -15 -30 -34 -62
-58 -101 -210 -403 -265 -528 -29 -66 -59 -133 -67 -150 -45 -101 -156 -410
-209 -585 -68 -223 -160 -589 -179 -712 -3 -21 -10 -57 -15 -80 -16 -72 -23
-111 -52 -298 -5 -36 -11 -76 -14 -90 -32 -197 -34 -242 -12 -318 16 -58 23
-70 33 -60 25 27 84 155 89 193 5 44 24 176 31 215 15 90 37 218 40 235 4 19
17 84 19 95 1 3 7 30 13 60 17 77 22 101 28 130 80 398 311 1100 490 1488 19
41 34 75 34 78 0 2 37 82 83 177 90 186 228 442 335 620 37 62 69 115 70 120
9 19 219 333 289 431 107 151 182 267 189 293 9 33 -12 63 -44 63 -20 0 -43
-15 -84 -57z"/>
<path d="M8509 15242 c-24 -61 -19 -76 141 -502 226 -599 231 -611 264 -631
17 -11 34 -19 37 -19 4 0 18 15 32 34 l26 34 -30 78 c-16 44 -33 88 -38 99 -5
11 -82 214 -172 450 -89 237 -169 438 -177 447 -7 9 -27 21 -43 27 -27 9 -31
8 -40 -17z"/>
<path d="M12400 15202 c-27 -3 -22 5 -146 -267 -17 -38 -55 -124 -84 -190 -29
-66 -63 -142 -75 -170 -12 -27 -59 -134 -104 -237 -83 -192 -84 -196 -55 -246
1 -1 10 -4 22 -7 12 -2 29 7 45 23 28 29 445 965 454 1019 3 18 3 43 -1 56 -6
24 -9 25 -56 19z"/>
<path d="M5035 13827 c-72 -76 -100 -126 -90 -158 7 -21 182 -206 188 -198 2
2 25 38 52 79 110 172 108 184 -52 322 l-31 26 -67 -71z"/>
<path d="M4256 12044 c-66 -64 -73 -86 -42 -139 28 -48 86 -102 124 -116 38
-15 74 4 179 93 l92 77 -97 56 c-53 31 -105 60 -114 65 -10 6 -35 10 -56 10
-33 0 -47 -7 -86 -46z"/>
<path d="M15725 13851 c-43 -26 -86 -71 -100 -105 -22 -52 16 -124 94 -178 34
-24 50 -29 80 -25 35 4 236 120 236 135 0 12 -175 156 -212 176 -41 21 -61 20
-98 -3z"/>
<path d="M16406 12065 c-84 -118 -94 -151 -59 -203 14 -20 48 -59 74 -85 l49
-48 66 57 c122 107 130 139 59 231 -25 32 -60 77 -78 100 -18 23 -34 42 -37
43 -3 0 -36 -43 -74 -95z"/>
<path d="M5770 12486 c-31 -10 -35 -15 -32 -41 4 -29 27 -65 42 -65 4 0 66
-27 136 -61 158 -75 253 -119 319 -148 28 -13 58 -27 67 -31 9 -5 65 -31 125
-58 59 -27 128 -58 153 -70 206 -93 199 -91 249 -76 25 7 49 14 54 14 4 0 7 4
7 8 0 12 -88 102 -99 102 -6 0 -47 18 -93 39 -158 75 -259 121 -263 121 -2 0
-39 16 -82 36 -43 20 -116 53 -163 74 -47 21 -114 51 -150 68 -211 97 -227
102 -270 88z"/>
<path d="M15030 12383 c-36 -14 -123 -48 -195 -75 -71 -27 -139 -53 -150 -58
-11 -5 -156 -61 -323 -126 -312 -121 -347 -140 -340 -187 2 -11 19 -28 39 -39
l35 -18 525 209 c460 183 526 212 541 237 25 40 23 51 -12 69 -37 19 -41 19
-120 -12z"/>
<path d="M10419 12586 c-2 -2 -62 -6 -133 -10 -71 -4 -132 -8 -135 -10 -3 -2
-30 -7 -59 -10 -30 -3 -57 -8 -60 -10 -4 -2 -25 -7 -47 -10 -189 -29 -514
-162 -713 -292 -314 -205 -577 -497 -743 -827 -65 -128 -150 -363 -173 -477
-7 -38 -25 -131 -31 -165 -34 -202 -25 -547 22 -785 8 -41 17 -88 20 -105 2
-16 27 -97 54 -180 179 -544 550 -974 1057 -1225 210 -103 453 -179 657 -204
28 -4 66 -9 85 -12 62 -10 343 -12 415 -3 137 17 161 20 225 35 401 91 745
281 1043 578 348 346 585 823 632 1271 4 33 9 71 11 85 6 35 5 314 -1 375 -74
749 -491 1384 -1136 1730 -271 145 -607 237 -890 244 -46 1 -86 4 -89 6 -4 3
-9 3 -11 1z m160 -151 c65 -6 98 -25 117 -70 29 -70 11 -190 -37 -249 -53 -63
-124 -88 -247 -87 -183 1 -274 84 -276 250 -2 119 33 151 174 159 47 2 87 6
88 8 4 3 69 -1 181 -11z m-622 -187 l102 -103 -42 -67 c-23 -37 -48 -69 -55
-72 -7 -3 -44 35 -90 95 -124 162 -118 146 -69 202 23 26 44 47 47 47 3 0 51
-46 107 -102z m1114 -9 l18 -26 -82 -99 c-45 -55 -87 -104 -93 -111 -9 -9 -20
1 -48 45 -20 31 -36 64 -36 72 0 22 53 103 109 169 l46 53 33 -38 c19 -22 42
-51 53 -65z m253 3 c17 -20 43 -53 59 -73 26 -34 28 -39 15 -63 -7 -14 -56
-75 -108 -135 l-95 -110 -28 27 c-56 52 -56 50 34 228 46 90 85 164 88 164 4
0 19 -17 35 -38z m-1698 -138 c49 -53 104 -110 122 -127 17 -17 32 -34 32 -39
0 -7 -73 -44 -122 -61 -12 -4 -30 9 -61 46 -68 80 -137 179 -137 196 0 15 58
81 71 81 4 0 47 -43 95 -96z m-291 -189 c39 -38 91 -93 118 -121 l47 -51 -61
-37 c-33 -20 -65 -36 -72 -36 -11 0 -127 118 -198 202 l-40 47 23 20 c13 10
37 30 53 44 35 30 30 32 130 -68z m2389 1 c47 -44 58 -32 -126 -156 l-138 -92
-19 23 c-11 13 -25 34 -32 46 -14 25 -12 27 129 181 l86 92 30 -29 c17 -16 49
-45 70 -65z m-2678 -198 c3 -10 10 -18 15 -18 5 0 9 -4 9 -9 0 -5 30 -53 66
-106 72 -107 72 -102 1 -141 -27 -15 -30 -14 -64 12 -58 44 -193 177 -193 191
0 6 26 42 57 79 l57 67 23 -29 c13 -16 26 -37 29 -46z m1529 38 c360 -43 708
-262 927 -585 235 -345 299 -777 173 -1158 -43 -130 -120 -283 -182 -363 -112
-145 -195 -227 -320 -316 -232 -166 -492 -246 -778 -240 -193 5 -342 39 -514
119 -418 193 -717 607 -769 1062 -8 70 -7 262 2 320 64 449 367 853 786 1048
103 49 179 73 315 103 11 2 49 7 85 10 36 3 66 7 68 8 4 5 146 -1 207 -8z
m1379 -64 c38 -26 69 -51 69 -57 1 -13 -283 -205 -304 -205 -8 0 -30 15 -48
34 l-32 33 53 59 c88 97 175 184 184 184 5 -1 40 -22 78 -48z m-3154 -289 c41
-28 214 -169 227 -185 10 -12 3 -24 -41 -67 -37 -37 -58 -51 -68 -45 -7 4 -66
55 -131 113 l-118 105 48 48 c26 26 50 47 53 48 3 0 17 -8 30 -17z m3329 -32
c23 -27 41 -51 41 -54 0 -3 -49 -44 -110 -91 l-110 -86 -42 38 c-50 44 -58 53
-52 64 8 12 217 178 225 178 4 0 26 -22 48 -49z m-3432 -288 c27 -21 84 -64
126 -97 42 -32 77 -61 76 -65 0 -3 -18 -21 -40 -40 l-39 -33 -42 17 c-80 31
-238 109 -238 117 0 12 91 138 100 138 4 0 30 -17 57 -37z m3553 -37 c30 -19
54 -38 53 -41 -4 -14 -131 -109 -173 -130 -51 -25 -63 -25 -142 0 -51 17 -57
21 -63 53 -3 19 -5 35 -3 36 2 0 14 7 28 15 114 65 190 101 215 101 18 0 54
-14 85 -34z m-3509 -330 c45 -19 93 -72 110 -123 21 -58 18 -246 -4 -309 -33
-96 -113 -146 -232 -147 -90 0 -144 26 -171 80 -16 33 -18 60 -17 205 1 91 6
184 12 205 21 76 91 114 201 108 36 -2 81 -11 101 -19z m3600 -2 c19 -11 43
-38 56 -62 20 -40 21 -56 19 -225 -1 -151 -5 -188 -19 -214 -24 -46 -82 -72
-159 -74 -176 -4 -255 80 -262 277 -4 125 21 221 72 267 59 54 223 71 293 31z
m-3472 -737 c38 -18 47 -27 49 -52 3 -29 -2 -34 -83 -79 -47 -27 -105 -54
-128 -61 -47 -14 -66 -8 -138 45 l-38 27 63 51 c99 81 144 104 190 97 21 -3
59 -16 85 -28z m3248 18 c77 -18 256 -67 262 -72 3 -2 -28 -34 -68 -72 l-72
-70 -37 18 c-63 29 -121 61 -178 97 l-54 35 32 39 c17 22 35 40 39 40 4 0 38
-7 76 -15z m-66 -337 c52 -56 104 -112 116 -124 l22 -22 -47 -41 c-26 -22 -54
-41 -63 -41 -8 0 -68 50 -133 112 l-117 112 58 53 c32 29 61 53 64 53 3 0 48
-46 100 -102z m-3057 -7 l69 -39 -89 -59 c-192 -129 -197 -130 -269 -68 l-40
34 24 18 c53 38 226 153 231 153 3 0 36 -18 74 -39z m170 -253 l37 -33 -82
-115 c-45 -63 -93 -130 -107 -149 l-25 -34 -64 68 -64 68 28 30 c47 50 217
197 229 197 6 0 27 -15 48 -32z m2612 -10 c79 -56 191 -145 199 -158 7 -11
-84 -160 -97 -160 -3 0 -26 23 -50 52 -23 28 -50 59 -58 67 -8 9 -41 49 -72
89 l-58 74 33 39 c17 21 35 39 38 39 3 0 32 -19 65 -42z m-2307 -214 l39 -15
-15 -47 c-14 -42 -30 -59 -147 -155 -146 -120 -124 -116 -190 -33 l-29 37 29
31 c16 17 72 68 124 114 103 91 118 96 189 68z m2145 -86 c114 -77 132 -94
149 -133 11 -25 18 -47 16 -48 -26 -20 -132 -56 -143 -50 -24 13 -128 115
-184 180 -35 40 -51 67 -46 75 24 43 57 78 67 71 7 -4 70 -47 141 -95z m-1867
-116 l81 -28 -148 -152 -148 -152 -34 42 c-51 64 -51 65 -27 106 13 20 25 39
29 42 3 3 18 23 34 45 36 50 111 125 123 125 6 0 46 -13 90 -28z m1652 -167
c57 -61 57 -59 -8 -109 -33 -25 -63 -46 -68 -46 -9 0 -121 148 -153 202 -23
40 -23 43 24 101 l31 37 68 -72 c38 -40 86 -91 106 -113z m-412 -55 c39 -58
78 -120 87 -139 l18 -33 -69 -69 c-37 -38 -71 -69 -75 -69 -7 0 -118 329 -118
350 0 15 73 81 81 72 4 -4 38 -54 76 -112z m-971 24 l32 -40 -59 -80 c-33 -43
-71 -94 -85 -112 l-25 -32 -47 45 -47 46 28 51 c16 28 51 86 79 130 l51 79 21
-23 c12 -13 35 -42 52 -64z m554 35 c94 -32 143 -108 143 -217 0 -38 -7 -78
-18 -103 -30 -66 -89 -90 -256 -105 -83 -8 -199 11 -241 40 -53 35 -70 79 -64
164 11 175 101 244 306 237 52 -2 111 -9 130 -16z"/>
<path d="M10834 11417 c-1 -129 -7 -167 -44 -245 -66 -142 -186 -251 -409
-373 -24 -13 -51 -28 -60 -34 -9 -5 -34 -21 -56 -34 -385 -236 -557 -417 -596
-628 -38 -202 81 -414 313 -558 240 -150 438 -247 558 -274 53 -12 56 -14
-125 104 -348 228 -459 332 -537 503 -25 55 -31 81 -31 142 -1 65 3 84 32 143
68 142 290 324 606 497 331 181 440 330 431 589 -2 58 -6 115 -9 127 -11 44
-52 138 -62 141 -6 2 -10 -36 -11 -100z"/>
<path d="M6143 10639 c-41 -12 -42 -24 -3 -47 27 -17 61 -19 428 -19 339 0
405 2 451 16 l54 16 -29 14 c-38 17 -93 20 -514 25 -200 2 -369 0 -387 -5z"/>
<path d="M18362 9402 c-31 -66 -53 -126 -57 -157 -5 -46 -48 -315 -60 -375 -7
-37 -36 -181 -41 -210 -3 -14 -21 -92 -40 -175 -79 -334 -161 -608 -292 -975
-25 -72 -142 -358 -177 -435 -158 -347 -303 -621 -473 -895 -36 -58 -164 -253
-285 -434 -212 -318 -220 -331 -222 -383 -3 -55 -3 -55 23 -48 58 14 99 44
144 106 26 35 51 69 56 74 113 144 418 620 534 835 178 330 250 477 373 765
25 61 50 119 56 130 69 150 312 886 344 1044 2 9 17 70 33 136 32 127 108 477
116 536 3 19 10 61 16 94 13 62 14 71 25 145 4 25 8 56 11 70 15 91 14 119 -5
184 -11 38 -22 70 -24 72 -2 2 -27 -45 -55 -104z"/>
<path d="M16411 9027 c-98 -159 -97 -181 20 -266 l80 -59 64 68 c66 71 82 102
71 145 -5 21 -143 196 -165 209 -4 3 -35 -41 -70 -97z"/>
<path d="M15712 7245 c-17 -8 -50 -33 -72 -56 -65 -68 -65 -106 -5 -177 48
-56 117 -96 150 -88 23 6 195 163 195 178 0 7 -149 121 -179 138 -35 18 -54
19 -89 5z"/>
<path d="M4294 9014 c-66 -72 -89 -121 -73 -161 10 -26 149 -201 161 -202 11
-1 148 189 154 215 9 35 -25 82 -109 151 l-74 61 -59 -64z"/>
<path d="M5029 7242 c-14 -9 -51 -40 -81 -68 l-56 -50 53 -75 c85 -120 123
-143 175 -110 21 13 179 127 188 136 3 3 -116 123 -157 158 -38 32 -83 35
-122 9z"/>
<path d="M6660 8915 c-47 -18 -209 -82 -360 -140 -151 -59 -288 -112 -305
-119 -16 -7 -79 -32 -138 -56 -97 -38 -110 -46 -127 -80 l-19 -37 41 -22 41
-21 106 40 c58 23 120 48 138 56 17 8 34 14 37 14 3 0 25 9 49 19 23 11 166
69 317 129 412 165 375 147 386 191 l11 39 -37 11 c-48 14 -42 15 -140 -24z"/>
<path d="M14022 8919 c-24 -9 -24 -12 -12 -86 0 -3 90 -46 245 -118 39 -18
115 -54 170 -80 108 -51 113 -53 405 -187 239 -111 239 -110 267 -103 18 4 23
12 23 38 0 17 -4 38 -8 45 -8 11 -228 123 -497 252 -55 26 -194 93 -309 149
-204 99 -237 109 -284 90z"/>
<path d="M8880 6729 c-32 -14 -50 -29 -60 -52 -7 -17 -28 -63 -46 -102 -32
-71 -66 -146 -69 -155 -1 -3 -11 -25 -22 -50 -11 -25 -46 -103 -78 -175 -31
-71 -65 -148 -75 -170 -49 -111 -132 -310 -134 -324 -2 -9 4 -35 13 -58 l16
-42 43 27 c46 29 54 42 149 261 30 69 61 140 68 156 59 129 254 596 260 622 4
20 1 41 -7 57 l-13 25 -45 -20z"/>
<path d="M11882 6755 c-12 -25 -22 -50 -22 -55 0 -10 141 -401 160 -445 5 -11
57 -150 116 -309 62 -165 117 -298 129 -308 43 -41 50 -40 74 7 l22 45 -39
112 c-56 159 -243 672 -294 805 -38 98 -96 193 -118 193 -3 0 -16 -20 -28 -45z"/>
<path d="M7144 5102 c-21 -16 -62 -56 -91 -89 l-52 -60 54 -51 c60 -58 111
-92 138 -92 10 0 32 7 48 16 37 19 190 131 190 139 -1 7 -100 90 -160 133 -54
39 -77 40 -127 4z"/>
<path d="M8842 4292 c-40 -37 -73 -73 -73 -80 -1 -6 -2 -18 -3 -24 -4 -25 23
-76 84 -159 34 -46 66 -84 70 -84 10 0 124 154 142 192 8 15 13 34 12 41 -1 6
-2 20 -3 29 -1 17 -135 153 -150 153 -4 0 -39 -30 -79 -68z"/>
<path d="M13574 5088 c-75 -118 -83 -136 -73 -172 10 -36 38 -66 104 -114 28
-20 52 -40 55 -44 8 -10 132 117 155 158 30 54 15 78 -136 222 l-46 43 -59
-93z"/>
<path d="M11852 4334 c-88 -67 -109 -102 -93 -155 9 -31 101 -202 117 -218 2
-2 25 20 51 50 27 30 58 64 69 76 58 59 75 107 56 155 -4 9 -34 45 -68 81
l-61 65 -71 -54z"/>
<path d="M15336 4005 c-18 -6 -62 -33 -98 -61 -37 -27 -84 -59 -105 -72 -21
-12 -164 -101 -318 -196 -1168 -727 -1482 -883 -2235 -1109 -92 -28 -301 -82
-395 -102 -107 -24 -160 -35 -188 -39 -15 -3 -35 -7 -45 -10 -15 -5 -199 -38
-277 -50 -98 -15 -122 -19 -135 -21 -8 -1 -40 -6 -70 -10 -55 -7 -109 -33
-163 -78 l-28 -24 50 -22 c36 -15 63 -20 94 -17 23 3 67 8 98 11 31 3 65 7 75
9 28 5 106 18 129 22 11 2 29 5 40 7 11 3 40 8 65 12 233 37 714 160 1010 258
69 22 130 42 135 44 64 17 447 167 590 231 278 124 543 258 780 395 66 38 136
78 155 89 19 11 42 26 51 34 8 8 19 14 22 14 22 0 710 475 737 509 3 3 24 19
48 34 44 28 64 61 75 125 7 32 6 33 -29 30 -20 -1 -50 -7 -68 -13z"/>
</g>
</svg>
